<svg width="128" height="128" viewBox="0 0 128 128" fill="none" xmlns="http://www.w3.org/2000/svg">
<g clip-path="url(#clip0_935_577)">
<path d="M128 0H0V128H128V0Z" fill="white"/>
<mask id="mask0_935_577" style="mask-type:luminance" maskUnits="userSpaceOnUse" x="5" y="16" width="118" height="95">
<path d="M122.496 16.5264H5.50391V110.474H122.496V16.5264Z" fill="white"/>
</mask>
<g mask="url(#mask0_935_577)">
<path d="M12.1214 67.7414C10.9566 67.9214 10.5726 69.0138 10.7902 70.0805C10.995 71.1086 11.5454 72.0211 12.275 72.7408C11.4814 73.2292 10.5342 73.9618 10.4062 74.8742C10.2654 75.9281 11.2382 76.7635 12.1982 76.8406C13.4014 76.9434 14.6046 76.1723 15.5134 75.4397C16.4222 74.7072 17.3438 73.7047 17.7918 72.5866C17.9838 72.5609 18.163 72.3681 18.035 72.1368C17.4078 71.0315 16.6142 70.0419 15.6286 69.2451C14.6942 68.5126 13.3502 67.5615 12.1214 67.7414Z" fill="#9B2C87"/>
<path d="M15.4741 78.2541C14.7957 79.218 15.3461 80.2462 16.2677 80.8117C17.1637 81.3643 18.2005 81.5956 19.2245 81.5571C19.0325 82.4696 18.9173 83.6648 19.4933 84.3716C20.1717 85.1942 21.4517 85.0528 22.1557 84.4102C23.0645 83.6005 23.3333 82.2125 23.4229 81.043C23.5125 79.8863 23.4229 78.5369 22.9109 77.4445C23.0261 77.2774 23.0005 77.0332 22.7573 76.9689C21.5157 76.6605 20.2485 76.5705 18.9941 76.7376C17.8165 76.9047 16.1909 77.226 15.4741 78.2541Z" fill="#410B72"/>
<path d="M20.3527 58.9636C19.3543 58.3468 18.3431 58.9379 17.8183 59.889C17.3063 60.8015 17.1399 61.8425 17.2295 62.8706C16.3079 62.7292 15.1047 62.6778 14.4135 63.2947C13.6199 64.0016 13.8375 65.2739 14.5159 65.9422C15.3863 66.7904 16.7815 66.9832 17.9591 67.0218C19.1367 67.0475 20.4807 66.8804 21.5431 66.3278C21.7095 66.4306 21.9655 66.392 22.0167 66.1479C22.2599 64.9012 22.2727 63.6417 22.0423 62.3951C21.8375 61.2127 21.4279 59.6191 20.3527 58.9636Z" fill="#764095"/>
<path d="M27.9035 49.8386C26.9051 49.2218 25.8939 49.8129 25.3691 50.764C24.8571 51.6765 24.6907 52.7175 24.7803 53.7456C23.8587 53.6042 22.6555 53.5528 21.9643 54.1697C21.1707 54.8766 21.3883 56.1489 22.0667 56.8172C22.9371 57.6654 24.3323 57.8582 25.5099 57.8968C26.6875 57.9225 28.0315 57.7554 29.0939 57.2028C29.2603 57.3056 29.5163 57.267 29.5675 57.0229C29.8107 55.7762 29.8235 54.5167 29.5931 53.2701C29.3883 52.0877 28.9787 50.4941 27.9035 49.8386Z" fill="#764095"/>
<path d="M41.6007 48.4251C40.6023 47.8082 39.5911 48.3994 39.0663 49.3504C38.5543 50.2629 38.3879 51.3039 38.4775 52.332C37.5559 52.1907 36.3527 52.1393 35.6615 52.7562C34.8679 53.463 35.0855 54.7353 35.7639 55.4036C36.6343 56.2519 38.0295 56.4447 39.2071 56.4832C40.3847 56.5089 41.7287 56.3418 42.7911 55.7892C42.9575 55.892 43.2135 55.8535 43.2647 55.6093C43.5079 54.3626 43.5207 53.1032 43.2903 51.8565C43.0855 50.6741 42.6759 49.0805 41.6007 48.4251Z" fill="#9B2C87"/>
<path d="M54.9378 48.9778C55.5522 47.9753 54.9634 46.9729 54.0162 46.4588C53.0946 45.9576 52.045 45.7905 51.021 45.8804C51.1618 44.9551 51.213 43.7599 50.5986 43.0787C49.8818 42.2948 48.6146 42.5004 47.9362 43.1815C47.0786 44.0426 46.8866 45.4435 46.8482 46.613C46.8226 47.7825 46.989 49.1191 47.5522 50.1858C47.4498 50.3529 47.4882 50.6099 47.7314 50.6485C48.9858 50.8798 50.253 50.9055 51.5074 50.6742C52.6722 50.4429 54.285 50.0316 54.9378 48.9778Z" fill="#764095"/>
<path d="M67.6098 61.3409C68.0962 60.5441 67.597 59.7087 66.8162 59.2718C66.061 58.8477 65.2034 58.6934 64.3714 58.7448C64.4738 57.9994 64.4994 57.0227 63.9746 56.4572C63.373 55.8018 62.349 55.956 61.8114 56.4958C61.133 57.1769 60.9922 58.3207 60.9922 59.2718C60.9922 60.2228 61.1458 61.3152 61.6194 62.1892C61.5426 62.3305 61.5682 62.5362 61.773 62.5747C62.797 62.7932 63.8338 62.8318 64.845 62.6518C65.7794 62.4976 67.085 62.1892 67.6098 61.3409Z" fill="#410B72"/>
<path d="M65.3305 45.6361C64.4985 44.8008 63.3849 45.1478 62.6553 45.9446C61.9513 46.7157 61.5417 47.6924 61.4009 48.7077C60.5305 48.3479 59.3785 48.0266 58.5721 48.4635C57.6377 48.9776 57.5481 50.25 58.0601 51.0596C58.7001 52.0878 60.0313 52.6019 61.1577 52.9103C62.2969 53.2187 63.6409 53.3601 64.8057 53.0645C64.9465 53.2059 65.2025 53.2316 65.3049 53.0003C65.8297 51.8436 66.1369 50.6227 66.1881 49.3503C66.2521 48.1808 66.2137 46.5229 65.3305 45.6361Z" fill="#9B2C87"/>
<path d="M105.089 84.5003C106.023 85.2201 107.085 84.7317 107.7 83.832C108.289 82.971 108.57 81.9557 108.57 80.9275C109.479 81.1588 110.669 81.3388 111.412 80.7861C112.269 80.1564 112.18 78.8841 111.578 78.1387C110.797 77.2005 109.428 76.8663 108.25 76.7249C107.085 76.5707 105.729 76.6093 104.615 77.0591C104.461 76.9434 104.205 76.9563 104.129 77.2005C103.77 78.4214 103.629 79.668 103.732 80.9404C103.834 82.1099 104.09 83.7421 105.089 84.5003Z" fill="#9B2C87"/>
<path d="M115.738 76.532C116.89 76.3264 117.248 75.2082 117.005 74.1544C116.775 73.1262 116.199 72.2395 115.456 71.5326C116.237 71.0185 117.171 70.2603 117.261 69.3478C117.376 68.2939 116.378 67.4843 115.418 67.4328C114.202 67.3686 113.037 68.1654 112.141 68.9237C111.245 69.6819 110.362 70.6972 109.939 71.8282C109.747 71.8667 109.581 72.0595 109.709 72.278C110.362 73.3704 111.194 74.3343 112.192 75.1054C113.139 75.8251 114.509 76.7505 115.738 76.532Z" fill="#9B2C87"/>
<path d="M113.317 63.3462C113.804 62.2795 113.074 61.367 112.076 60.9686C111.09 60.5959 110.041 60.5573 109.029 60.7886C109.055 59.8504 108.953 58.6681 108.249 58.0769C107.442 57.3957 106.201 57.7684 105.625 58.5267C104.882 59.4906 104.882 60.9043 104.997 62.061C105.125 63.2176 105.458 64.5285 106.162 65.5053C106.085 65.6852 106.149 65.9294 106.405 65.9422C107.685 66.0065 108.94 65.8651 110.156 65.4667C111.257 65.1069 112.805 64.49 113.317 63.3462Z" fill="#9B2C87"/>
<path d="M102.694 54.2212C103.181 53.1545 102.451 52.242 101.453 51.8436C100.467 51.4709 99.4175 51.4323 98.4063 51.6636C98.4319 50.7254 98.3295 49.5431 97.6255 48.9519C96.8191 48.2707 95.5775 48.6434 95.0015 49.4017C94.2591 50.3656 94.2591 51.7793 94.3743 52.936C94.5023 54.0926 94.8351 55.4035 95.5391 56.3803C95.4623 56.5602 95.5263 56.8044 95.7823 56.8172C97.0623 56.8815 98.3167 56.7401 99.5327 56.3417C100.633 55.9819 102.182 55.365 102.694 54.2212Z" fill="#410B72"/>
<path d="M90.663 55.7632C91.1494 54.6964 90.4198 53.784 89.4214 53.3856C88.4358 53.0128 87.3862 52.9743 86.375 53.2056C86.4006 52.2674 86.2982 51.0851 85.5942 50.4939C84.7878 49.8127 83.5462 50.1854 82.9702 50.9437C82.2278 51.9076 82.2278 53.3213 82.343 54.478C82.471 55.6346 82.8038 56.9455 83.5078 57.9223C83.431 58.1022 83.495 58.3464 83.751 58.3592C85.031 58.4235 86.2854 58.2821 87.5014 57.8837C88.6022 57.5239 90.151 56.907 90.663 55.7632Z" fill="#9B2C87"/>
<path d="M89.5606 42.1535C89.599 40.9711 88.5878 40.4056 87.4998 40.4313C86.4502 40.457 85.4646 40.8426 84.6198 41.4338C84.287 40.5598 83.7238 39.4931 82.8534 39.2232C81.8422 38.9019 80.8438 39.7245 80.6006 40.6498C80.2934 41.8322 80.8182 43.1302 81.3814 44.1712C81.9318 45.1994 82.751 46.2789 83.775 46.9087C83.775 47.1143 83.9286 47.3071 84.1718 47.2171C85.375 46.793 86.4758 46.1761 87.4358 45.3407C88.3318 44.5696 89.5222 43.4001 89.5606 42.1535Z" fill="#764095"/>
<path d="M72.435 40.328C73.139 39.3898 72.6398 38.336 71.7438 37.732C70.8734 37.1408 69.8494 36.8837 68.8126 36.8837C69.043 35.9841 69.1966 34.7889 68.6462 34.0563C68.0062 33.2081 66.7134 33.298 65.9838 33.9149C65.0494 34.6861 64.7294 36.0612 64.5886 37.2307C64.4478 38.3874 64.499 39.7368 64.9598 40.8421C64.8446 40.9963 64.8574 41.2534 65.1006 41.3305C66.3294 41.6775 67.5966 41.8189 68.8638 41.7032C70.0414 41.5875 71.6798 41.3176 72.435 40.328Z" fill="#9B2C87"/>
<path d="M82.4442 29.661C81.7402 28.7229 82.2394 27.669 83.1354 27.065C84.0058 26.4738 85.0298 26.2167 86.0666 26.2167C85.8362 25.3171 85.6826 24.1219 86.233 23.3893C86.873 22.5411 88.1658 22.6311 88.8954 23.2479C89.8298 24.0191 90.1498 25.3942 90.2906 26.5637C90.4314 27.7204 90.3802 29.0699 89.9194 30.1751C90.0346 30.3293 90.0218 30.5864 89.7786 30.6635C88.5498 31.0105 87.2826 31.1519 86.0154 31.0362C84.8378 30.9205 83.1994 30.6506 82.4442 29.661Z" fill="#400B72"/>
<path d="M77.773 42.1787C76.7618 41.5747 75.7634 42.1787 75.2514 43.1297C74.7522 44.0551 74.5986 45.0961 74.701 46.1114C73.7666 45.9829 72.5634 45.9443 71.8978 46.5612C71.117 47.2809 71.3346 48.5404 72.0258 49.2087C72.8962 50.0569 74.3042 50.224 75.4818 50.2497C76.6594 50.2625 78.0034 50.0826 79.0658 49.5171C79.2322 49.6199 79.4882 49.5814 79.5394 49.3244C79.757 48.0777 79.7698 46.8054 79.5138 45.5716C79.2706 44.4149 78.8354 42.8213 77.773 42.1787Z" fill="#764095"/>
<path d="M59.7242 31.5117C58.713 30.9077 57.7146 31.5117 57.2026 32.4627C56.7034 33.3881 56.5498 34.4291 56.6522 35.4444C55.7178 35.3159 54.5146 35.2773 53.849 35.8942C53.0682 36.6139 53.2858 37.8734 53.977 38.5417C54.8474 39.3899 56.2554 39.557 57.433 39.5827C58.6106 39.5955 59.9546 39.4156 61.017 38.8501C61.1834 38.953 61.4394 38.9144 61.4906 38.6574C61.7082 37.4107 61.721 36.1384 61.465 34.9046C61.2218 33.7479 60.7866 32.1543 59.7242 31.5117Z" fill="#764095"/>
<path d="M46.0289 23.9292C45.0177 23.3251 44.0193 23.9292 43.5073 24.8802C43.0081 25.8056 42.8545 26.8466 42.9569 27.8619C42.0225 27.7333 40.8193 27.6948 40.1537 28.3117C39.3729 29.0314 39.5905 30.2909 40.2817 30.9592C41.1521 31.8074 42.5601 31.9745 43.7377 32.0002C44.9153 32.013 46.2593 31.8331 47.3217 31.2676C47.4881 31.3704 47.7441 31.3319 47.7953 31.0748C48.0129 29.8282 48.0257 28.5559 47.7697 27.3221C47.5265 26.1654 47.0913 24.5718 46.0289 23.9292Z" fill="#410B72"/>
<path d="M77.0294 24.9447C76.1078 24.2121 75.0326 24.6748 74.4054 25.5487C73.791 26.3969 73.4966 27.4122 73.471 28.4404C72.5622 28.1833 71.3846 27.9906 70.6294 28.5175C69.759 29.1215 69.8102 30.4067 70.4118 31.165C71.167 32.116 72.5366 32.4759 73.7014 32.6558C74.8662 32.8357 76.223 32.8229 77.3494 32.3988C77.503 32.5273 77.759 32.5144 77.8358 32.2702C78.2198 31.0622 78.399 29.8155 78.3094 28.5432C78.2326 27.3608 78.015 25.7158 77.0294 24.9447Z" fill="#9B2C87"/>
<path d="M44.7622 37.5137C44.199 36.4727 43.0342 36.4856 42.1126 37.0511C41.2166 37.5908 40.551 38.4134 40.1158 39.3515C39.3862 38.7604 38.375 38.1178 37.479 38.3105C36.4422 38.529 35.9942 39.7371 36.2502 40.6624C36.5702 41.832 37.6966 42.7059 38.695 43.3228C39.6934 43.9397 40.935 44.4666 42.1382 44.518C42.2406 44.6979 42.471 44.7879 42.6374 44.5951C43.4694 43.6312 44.1094 42.5388 44.5318 41.3436C44.9158 40.2126 45.3638 38.6061 44.7622 37.5137Z" fill="#9B2C87"/>
<path d="M34.9048 43.1685C34.3288 42.7316 33.6376 43.04 33.2024 43.6055C32.78 44.1581 32.5624 44.8007 32.5112 45.4433C31.9352 45.302 31.18 45.1991 30.6808 45.5461C30.1048 45.9445 30.1048 46.7542 30.4632 47.2169C30.924 47.7952 31.7944 48.0009 32.5368 48.0908C33.2792 48.1808 34.1496 48.1422 34.892 47.8595C34.9944 47.9366 35.148 47.9237 35.212 47.7695C35.4936 46.9984 35.6472 46.2016 35.6216 45.4176C35.6088 44.6722 35.5192 43.6441 34.9048 43.1685Z" fill="#9B2C87"/>
<path d="M27.354 41.6261C26.778 41.1891 26.0868 41.4975 25.6516 42.063C25.2292 42.6157 25.0116 43.2582 24.9604 43.9008C24.3844 43.7595 23.6292 43.6567 23.13 44.0037C22.554 44.4021 22.554 45.2117 22.9124 45.6744C23.3732 46.2527 24.2436 46.4584 24.986 46.5483C25.7284 46.6383 26.5988 46.5997 27.3412 46.317C27.4436 46.3941 27.5972 46.3813 27.6612 46.227C27.9428 45.4559 28.0964 44.6591 28.0708 43.8751C28.058 43.1297 27.9684 42.1016 27.354 41.6261Z" fill="#410B72"/>
<path d="M19.8013 41.6261C19.2253 41.1891 18.5341 41.4975 18.0989 42.063C17.6765 42.6157 17.4589 43.2582 17.4077 43.9008C16.8317 43.7595 16.0765 43.6567 15.5773 44.0037C15.0013 44.4021 15.0013 45.2117 15.3597 45.6744C15.8205 46.2527 16.6909 46.4584 17.4333 46.5483C18.1757 46.6383 19.0461 46.5997 19.7885 46.317C19.8909 46.3941 20.0445 46.3813 20.1085 46.227C20.3901 45.4559 20.5437 44.6591 20.5181 43.8751C20.5053 43.1297 20.4157 42.1016 19.8013 41.6261Z" fill="#9B2C87"/>
<path d="M16.729 50.8795C16.153 50.4425 15.4618 50.751 15.0266 51.3164C14.6042 51.8691 14.3866 52.5117 14.3354 53.1543C13.7594 53.0129 13.0042 52.9101 12.505 53.2571C11.929 53.6555 11.929 54.4652 12.2874 54.9278C12.7482 55.5062 13.6186 55.7118 14.361 55.8018C15.1034 55.8917 15.9738 55.8532 16.7162 55.5704C16.8186 55.6475 16.9722 55.6347 17.0362 55.4805C17.3178 54.7093 17.4714 53.9125 17.4458 53.1286C17.433 52.3831 17.3434 51.355 16.729 50.8795Z" fill="#9B2C87"/>
<path d="M10.7134 59.8761C10.1374 59.4391 9.44619 59.7475 9.01099 60.313C8.58859 60.8657 8.37098 61.5082 8.31978 62.1508C7.74379 62.0095 6.98859 61.9067 6.48939 62.2537C5.91339 62.6521 5.91339 63.4617 6.27179 63.9244C6.73259 64.5027 7.60298 64.7084 8.34538 64.7983C9.08778 64.8883 9.95818 64.8497 10.7006 64.567C10.803 64.6441 10.9566 64.6313 11.0206 64.477C11.3022 63.7059 11.4558 62.9091 11.4302 62.1251C11.4174 61.3797 11.3278 60.3516 10.7134 59.8761Z" fill="#410B72"/>
<path d="M7.80735 79.5007C7.43615 80.1176 7.84575 80.7731 8.46015 81.1201C9.06175 81.4671 9.72735 81.5956 10.3801 81.5699C10.3161 82.1482 10.3161 82.9065 10.7257 83.3563C11.1993 83.8704 12.0057 83.7676 12.4153 83.3563C12.9401 82.8294 13.0297 81.9426 13.0169 81.21C13.0041 80.4646 12.8633 79.6164 12.4793 78.9224C12.5433 78.8196 12.5049 78.6525 12.3513 78.6139C11.5449 78.434 10.7385 78.3826 9.94495 78.4983C9.21535 78.614 8.20415 78.8453 7.80735 79.5007Z" fill="#9B2C87"/>
<path d="M36.8007 30.2652C36.2887 29.7512 35.5591 29.9696 35.0599 30.4709C34.5735 30.9592 34.2663 31.5633 34.1383 32.2059C33.5879 31.9874 32.8583 31.7946 32.3079 32.0645C31.6807 32.3858 31.5783 33.1826 31.8727 33.6838C32.2439 34.3264 33.0887 34.6349 33.8055 34.8277C34.5223 35.0076 35.3927 35.0976 36.1607 34.9048C36.2503 34.9947 36.4167 35.0076 36.4935 34.8534C36.8775 34.1337 37.1335 33.3625 37.2103 32.5786C37.2999 31.846 37.3383 30.8179 36.8007 30.2652Z" fill="#9B2C87"/>
<path d="M53.1455 40.4053C53.5039 39.7884 53.0943 39.1329 52.4799 38.7859C51.8783 38.4518 51.1999 38.3104 50.5599 38.349C50.6239 37.7706 50.6239 37.0124 50.2015 36.5625C49.7279 36.0485 48.9215 36.1513 48.5119 36.5754C47.9871 37.1023 47.9103 37.9891 47.9231 38.7345C47.9359 39.4799 48.0895 40.3282 48.4735 41.0222C48.4095 41.125 48.4479 41.292 48.6015 41.3177C49.4079 41.4977 50.2143 41.5362 51.0079 41.4077C51.7503 41.292 52.7615 41.0736 53.1455 40.4053Z" fill="#9B2C87"/>
<path d="M55.3858 22.6567C55.0274 22.027 54.2594 22.0527 53.645 22.3997C53.0434 22.7467 52.5954 23.2608 52.301 23.8391C51.8274 23.4921 51.1746 23.1066 50.573 23.2351C49.8818 23.3893 49.5746 24.1347 49.7282 24.6873C49.9202 25.4071 50.6498 25.9211 51.3026 26.2938C51.9554 26.6537 52.7618 26.9621 53.5554 26.975C53.6194 27.0778 53.773 27.1421 53.8882 27.0135C54.4514 26.4095 54.8866 25.7412 55.181 24.9958C55.4498 24.3146 55.757 23.325 55.3858 22.6567Z" fill="#9B2C87"/>
<path d="M64.5122 24.4174C64.7682 23.7491 64.2562 23.1707 63.5906 22.9266C62.9378 22.6952 62.2594 22.6824 61.6194 22.8237C61.581 22.2325 61.453 21.4871 60.9666 21.1273C60.4034 20.7032 59.6354 20.9474 59.3026 21.4229C58.8802 22.0269 58.9442 22.9137 59.085 23.6463C59.2258 24.3788 59.5202 25.1885 60.0194 25.8054C59.981 25.921 60.0322 26.0753 60.1986 26.0753C61.0178 26.1138 61.8242 26.011 62.5794 25.7668C63.2834 25.5355 64.2434 25.1371 64.5122 24.4174Z" fill="#9B2C87"/>
<path d="M68.6079 29.6869C68.8639 29.0186 68.3519 28.4403 67.6863 28.1961C67.0335 27.9647 66.3551 27.9519 65.7151 28.0933C65.6767 27.5021 65.5487 26.7567 65.0623 26.3968C64.4991 25.9727 63.7311 26.2169 63.3983 26.6924C62.9759 27.2964 63.0399 28.1832 63.1807 28.9158C63.3215 29.6483 63.6159 30.458 64.1151 31.0749C64.0767 31.1906 64.1279 31.3448 64.2943 31.3448C65.1135 31.3834 65.9199 31.2805 66.6751 31.0364C67.3791 30.805 68.3391 30.4066 68.6079 29.6869Z" fill="#410B72"/>
<path d="M59.0727 56.3548C59.3671 55.9949 59.1495 55.4551 58.7655 55.0824C58.3943 54.7226 57.9463 54.4784 57.5111 54.3756C57.6007 53.9772 57.6647 53.4502 57.4215 53.0518C57.1399 52.5892 56.5895 52.4992 56.2823 52.7048C55.8855 52.9619 55.7575 53.5659 55.7063 54.0928C55.6551 54.6198 55.6807 55.2495 55.8855 55.8021C55.8343 55.8664 55.8471 55.9821 55.9495 56.0463C56.4743 56.3419 57.0247 56.5347 57.5623 56.6247C58.0615 56.6761 58.7655 56.7403 59.0727 56.3548Z" fill="#9B2C87"/>
<path d="M71.4232 52.7689C71.0264 52.5119 70.5144 52.7946 70.1944 53.2188C69.8744 53.63 69.6952 54.0927 69.644 54.5425C69.2344 54.4911 68.6968 54.4911 68.3384 54.7867C67.916 55.1208 67.8776 55.6735 68.1208 55.9562C68.428 56.3161 69.0424 56.3803 69.5672 56.3675C70.092 56.3546 70.7192 56.2647 71.2568 55.9948C71.3208 56.0333 71.436 56.0205 71.4872 55.9048C71.7176 55.3522 71.8456 54.7867 71.8584 54.2469C71.8712 53.7457 71.8328 53.0388 71.4232 52.7689Z" fill="#9B2C87"/>
<path d="M55.3978 28.8388C55.0522 28.1962 54.2842 28.209 53.6698 28.5432C53.0682 28.8773 52.6074 29.3786 52.3002 29.944C51.8394 29.5842 51.1866 29.1858 50.585 29.3014C49.8938 29.43 49.561 30.1754 49.7146 30.7409C49.8938 31.4606 50.6106 32.0003 51.2506 32.373C51.8906 32.7458 52.697 33.0799 53.4906 33.1056C53.5546 33.2084 53.7082 33.2727 53.8106 33.157C54.3866 32.5658 54.8346 31.8975 55.1418 31.165C55.4234 30.4967 55.7562 29.5199 55.3978 28.8388Z" fill="#9B2C87"/>
<path d="M80.2181 35.3801C79.6293 34.956 78.9381 35.303 78.5285 35.8813C78.1317 36.4468 77.9397 37.1022 77.9141 37.7448C77.3381 37.6292 76.5701 37.5521 76.0965 37.9248C75.5333 38.3489 75.5717 39.1586 75.9429 39.5955C76.4293 40.161 77.2997 40.3281 78.0421 40.3795C78.7845 40.4309 79.6549 40.3666 80.3845 40.0453C80.4869 40.1096 80.6533 40.0967 80.7045 39.9425C80.9605 39.1586 81.0757 38.3617 81.0245 37.5778C80.9861 36.8452 80.8453 35.8171 80.2181 35.3801Z" fill="#9B2C87"/>
<path d="M89.306 33.8381C88.7172 33.414 88.026 33.761 87.6164 34.3393C87.2196 34.9048 87.0276 35.5603 87.002 36.2029C86.426 36.0872 85.658 36.0101 85.1844 36.3828C84.6212 36.8069 84.6596 37.6166 85.0308 38.0535C85.5172 38.619 86.3876 38.7861 87.13 38.8375C87.8724 38.8889 88.7428 38.8246 89.4724 38.5033C89.5748 38.5676 89.7412 38.5547 89.7924 38.4005C90.0484 37.6166 90.1636 36.8197 90.1124 36.0358C90.074 35.3032 89.9332 34.2751 89.306 33.8381Z" fill="#9B2C87"/>
<path d="M68.058 17.1306C67.4692 16.7065 66.778 17.0535 66.3684 17.6318C65.9716 18.1973 65.7796 18.8527 65.754 19.4953C65.178 19.3797 64.41 19.3026 63.9364 19.6753C63.3732 20.0994 63.4116 20.909 63.7828 21.346C64.2692 21.9115 65.1396 22.0786 65.882 22.13C66.6244 22.1814 67.4948 22.1171 68.2244 21.7958C68.3268 21.8601 68.4932 21.8472 68.5444 21.693C68.8004 20.909 68.9156 20.1122 68.8644 19.3283C68.826 18.5957 68.6852 17.5675 68.058 17.1306Z" fill="#9B2C87"/>
<path d="M84.0834 24.4305C84.3394 23.7622 83.8274 23.1839 83.1618 22.9397C82.509 22.7084 81.8306 22.6827 81.1906 22.8369C81.1522 22.2457 81.0242 21.5003 80.5506 21.1276C79.9874 20.7035 79.2194 20.9348 78.8866 21.4232C78.4642 22.0272 78.5282 22.914 78.669 23.6465C78.8098 24.3791 79.0914 25.1888 79.5906 25.8057C79.5522 25.9213 79.6034 26.0756 79.7698 26.0756C80.589 26.1141 81.3954 26.0241 82.1506 25.7671C82.8546 25.5358 83.8146 25.1374 84.0834 24.4305Z" fill="#9B2C87"/>
<path d="M76.5306 23.0169C76.7866 22.3486 76.2746 21.7703 75.609 21.5261C74.9562 21.2948 74.2778 21.2691 73.6378 21.4233C73.5994 20.8321 73.4714 20.0867 72.9978 19.714C72.4346 19.2899 71.6666 19.5212 71.3338 20.0096C70.9114 20.6136 70.9754 21.5004 71.1162 22.233C71.257 22.9655 71.5386 23.7752 72.0378 24.3921C71.9994 24.5078 72.0506 24.662 72.217 24.662C73.0362 24.7005 73.8426 24.6106 74.5978 24.3535C75.3018 24.1222 76.2618 23.7238 76.5306 23.0169Z" fill="#9B2C87"/>
<path d="M100.722 35.0975C100.978 34.4292 100.466 33.8509 99.8004 33.6067C99.1476 33.3753 98.4692 33.3496 97.8292 33.5039C97.7908 32.9127 97.6628 32.1673 97.1892 31.7946C96.626 31.3705 95.858 31.6018 95.5252 32.0902C95.1028 32.6942 95.1668 33.581 95.3076 34.3135C95.4484 35.0461 95.73 35.8558 96.2292 36.4727C96.1908 36.5883 96.242 36.7425 96.4084 36.7425C97.2276 36.7811 98.034 36.6911 98.7892 36.4341C99.4932 36.2028 100.453 35.8044 100.722 35.0975Z" fill="#764095"/>
<path d="M96.2435 44.2225C96.4995 43.5542 95.9875 42.9759 95.3219 42.7317C94.6691 42.5003 93.9907 42.4746 93.3507 42.6289C93.3123 42.0377 93.1843 41.2923 92.7107 40.9196C92.1475 40.4955 91.3795 40.7268 91.0467 41.2152C90.6243 41.8192 90.6883 42.706 90.8291 43.4385C90.9699 44.1711 91.2515 44.9808 91.7507 45.5977C91.7123 45.7133 91.7635 45.8675 91.9299 45.8675C92.7491 45.9061 93.5555 45.8161 94.3107 45.5591C95.0147 45.3278 95.9747 44.9294 96.2435 44.2225Z" fill="#9B2C87"/>
<path d="M105.331 45.7645C105.587 45.0962 105.075 44.5179 104.41 44.2737C103.757 44.0423 103.079 44.0166 102.439 44.1709C102.4 43.5797 102.272 42.8343 101.799 42.4616C101.235 42.0374 100.467 42.2688 100.135 42.7572C99.7122 43.3612 99.7762 44.248 99.917 44.9805C100.058 45.7131 100.339 46.5228 100.839 47.1397C100.8 47.2553 100.851 47.4095 101.018 47.4095C101.837 47.4481 102.643 47.3581 103.399 47.1011C104.103 46.8698 105.063 46.4714 105.331 45.7645Z" fill="#764095"/>
<path d="M112.882 45.7645C113.138 45.0962 112.626 44.5179 111.961 44.2737C111.308 44.0423 110.629 44.0166 109.989 44.1709C109.951 43.5797 109.823 42.8343 109.349 42.4616C108.786 42.0374 108.018 42.2688 107.685 42.7572C107.263 43.3612 107.327 44.248 107.468 44.9805C107.609 45.7131 107.89 46.5228 108.389 47.1397C108.351 47.2553 108.402 47.4095 108.569 47.4095C109.388 47.4481 110.194 47.3581 110.949 47.1011C111.653 46.8698 112.613 46.4714 112.882 45.7645Z" fill="#410B72"/>
<path d="M114.316 54.6324C114.79 54.0927 114.496 53.3729 113.958 52.9231C113.42 52.4733 112.793 52.2291 112.14 52.152C112.307 51.5865 112.448 50.8411 112.115 50.327C111.731 49.7359 110.924 49.6973 110.451 50.0315C109.849 50.4556 109.606 51.3166 109.491 52.0492C109.376 52.7818 109.363 53.6557 109.619 54.4011C109.542 54.4911 109.542 54.6581 109.696 54.7224C110.451 55.0437 111.244 55.2236 112.038 55.2493C112.78 55.2493 113.817 55.2108 114.316 54.6324Z" fill="#9B2C87"/>
<path d="M121.869 65.2994C122.343 64.7596 122.048 64.0399 121.511 63.5901C120.973 63.1403 120.346 62.8961 119.693 62.819C119.859 62.2535 120 61.5081 119.667 60.994C119.283 60.4029 118.477 60.3643 118.003 60.6984C117.402 61.1226 117.159 61.9836 117.043 62.7162C116.928 63.4487 116.915 64.3227 117.171 65.0681C117.095 65.1581 117.095 65.3251 117.248 65.3894C118.003 65.7107 118.797 65.8906 119.591 65.9163C120.333 65.9163 121.37 65.8778 121.869 65.2994Z" fill="#410B72"/>
<path d="M115.43 83.1122C116.032 83.5235 116.71 83.1636 117.107 82.5724C117.491 81.9941 117.67 81.3387 117.683 80.6961C118.259 80.7989 119.027 80.8503 119.5 80.4776C120.051 80.0406 120 79.2309 119.616 78.794C119.129 78.2414 118.246 78.1 117.491 78.0486C116.748 78.01 115.878 78.0871 115.161 78.4341C115.059 78.3699 114.892 78.3827 114.854 78.5369C114.624 79.3209 114.521 80.1177 114.585 80.9145C114.636 81.66 114.79 82.6881 115.43 83.1122Z" fill="#764095"/>
<path d="M69.8618 62.0609C64.3194 67.8185 64.6394 95.1802 65.5354 108.906C65.561 109.356 65.9322 109.703 66.393 109.703H74.969C75.5322 109.703 75.9418 109.15 75.801 108.598C69.3754 83.9734 74.3802 81.4415 89.369 80.1692C99.9418 79.2696 102.22 77.4446 102.028 76.3136C101.977 75.9923 101.593 75.9152 101.286 75.9923C93.401 78.0486 89.7146 76.8663 92.3642 76.2879C101.414 74.3344 103.526 71.8669 103.116 70.9415C103.014 70.7231 102.732 70.7231 102.502 70.8002C88.793 75.4397 88.665 74.283 90.3802 73.0878C90.4186 73.0621 90.457 73.0364 90.5082 73.0235C103.385 66.9703 102.668 62.922 100.3 64.22C86.4378 71.7769 84.3258 71.4942 85.0298 70.3503C85.0682 70.2861 85.1194 70.2347 85.1706 70.1833C96.4346 60.5444 94.7194 57.1129 93.017 58.6166C91.3018 60.1202 76.3002 73.7047 73.7274 69.3993C71.1546 65.0939 76.7226 62.2922 78.233 58.4109C79.7306 54.5297 77.1578 53.8871 76.953 54.1055C76.7226 54.3112 76.9402 54.7353 69.8618 62.0609Z" stroke="#558E1D" stroke-width="2"/>
<path d="M57.4966 62.0609C63.039 67.8185 62.719 95.1802 61.823 108.906C61.7974 109.356 61.4262 109.703 60.9654 109.703H52.3894C51.8262 109.703 51.4166 109.15 51.5574 108.598C57.983 83.9734 52.9782 81.4415 37.9766 80.1692C27.4038 79.2696 25.1254 77.4446 25.3174 76.3136C25.3686 75.9923 25.7526 75.9152 26.0598 75.9923C33.9446 78.0486 37.631 76.8663 34.9814 76.2879C25.9318 74.3344 23.8198 71.8669 24.2294 70.9415C24.3318 70.7231 24.6134 70.7231 24.8438 70.8002C38.5526 75.4397 38.6806 74.283 36.9654 73.0878C36.927 73.0621 36.8886 73.0364 36.8374 73.0235C23.9606 66.9703 24.6774 62.922 27.0454 64.22C40.9078 71.7769 43.0198 71.4942 42.3158 70.3503C42.2774 70.2861 42.2262 70.2347 42.175 70.1833C30.911 60.5444 32.6262 57.1129 34.3286 58.6166C36.0438 60.1202 51.0454 73.7047 53.6182 69.3993C56.191 65.0939 50.623 62.2922 49.1126 58.4109C47.615 54.5297 50.1878 53.8871 50.3926 54.1055C50.6358 54.3112 50.4182 54.7353 57.4966 62.0609Z" stroke="#558E1D" stroke-width="2"/>
</g>
</g>
<defs>
<clipPath id="clip0_935_577">
<rect width="128" height="128" rx="64" fill="white"/>
</clipPath>
</defs>
</svg>
