<?xml version="1.0" standalone="no"?>
<!DOCTYPE svg PUBLIC "-//W3C//DTD SVG 20010904//EN"
 "http://www.w3.org/TR/2001/REC-SVG-20010904/DTD/svg10.dtd">
<svg version="1.0" xmlns="http://www.w3.org/2000/svg"
 width="700.000000pt" height="700.000000pt" viewBox="0 0 700.000000 700.000000"
 preserveAspectRatio="xMidYMid meet">
<metadata>
Created by potrace 1.14, written by Peter Selinger 2001-2017
</metadata>
<g transform="translate(0.000000,700.000000) scale(0.100000,-0.100000)"
fill="#000000" stroke="none">
<path d="M3641 6047 c-12 -14 -28 -44 -35 -68 -13 -42 -15 -44 -48 -41 -67 6
-106 -61 -63 -108 34 -37 126 -50 210 -29 51 13 57 27 56 133 -1 85 -23 130
-67 134 -21 2 -36 -4 -53 -21z"/>
<path d="M3917 5917 c-40 -28 -38 -129 4 -219 20 -43 26 -48 55 -48 46 0 156
36 181 59 58 55 25 109 -73 120 -57 6 -58 7 -65 41 -11 54 -61 77 -102 47z"/>
<path d="M3273 5849 c-12 -4 -27 -18 -34 -30 -17 -33 -6 -136 22 -191 23 -48
23 -48 74 -48 102 0 199 55 193 108 -5 39 -47 64 -107 64 -49 0 -51 1 -57 34
-9 50 -50 78 -91 63z"/>
<path d="M4343 5849 c-12 -4 -27 -18 -34 -30 -17 -33 -6 -136 22 -191 23 -48
23 -48 74 -48 189 0 277 155 95 168 -58 4 -60 5 -66 38 -9 50 -50 78 -91 63z"/>
<path d="M2934 5771 c-17 -10 -40 -31 -52 -45 -20 -26 -22 -27 -51 -12 -40 21
-67 20 -91 -4 -27 -27 -25 -62 5 -99 29 -34 112 -76 167 -84 35 -5 39 -3 68
41 36 54 64 143 55 172 -9 27 -33 50 -53 50 -9 0 -31 -9 -48 -19z"/>
<path d="M4729 5731 c-20 -16 -25 -31 -29 -93 l-5 -73 -48 -7 c-54 -7 -118
-45 -143 -84 -38 -57 11 -127 110 -156 50 -15 242 -15 277 0 21 8 28 21 39 72
29 135 -12 310 -80 345 -40 21 -93 19 -121 -4z"/>
<path d="M2402 5665 c-34 -38 -52 -89 -52 -147 l0 -38 -50 0 c-56 0 -104 -20
-120 -49 -36 -69 23 -150 125 -171 117 -24 299 10 312 58 12 48 -4 206 -27
267 -31 80 -67 115 -118 115 -33 0 -45 -6 -70 -35z"/>
<path d="M4085 5615 c-31 -33 -65 -109 -65 -146 0 -16 -9 -18 -71 -16 -66 2
-72 0 -95 -26 -43 -50 -25 -126 39 -166 75 -46 219 -63 317 -38 43 11 46 14
58 62 18 70 11 239 -13 285 -30 61 -54 80 -98 80 -32 0 -46 -6 -72 -35z"/>
<path d="M3479 5551 c-21 -17 -24 -28 -24 -88 0 -54 5 -79 26 -118 l25 -50 65
0 c138 0 236 97 153 151 -12 9 -47 18 -77 21 -53 5 -56 7 -62 39 -6 34 -37 64
-66 64 -9 0 -27 -9 -40 -19z"/>
<path d="M2923 5429 c-17 -11 -38 -31 -47 -44 l-16 -25 -33 20 c-17 11 -40 20
-49 20 -27 0 -58 -36 -58 -67 0 -54 127 -143 206 -143 24 0 47 27 84 100 58
115 6 199 -87 139z"/>
<path d="M1928 5340 c-15 -11 -35 -38 -44 -60 -17 -38 -18 -39 -64 -33 -35 4
-50 1 -63 -12 -17 -17 -22 -51 -11 -80 12 -30 85 -58 166 -63 l78 -5 19 44
c11 24 22 69 26 99 11 102 -45 160 -107 110z"/>
<path d="M3177 5274 c-38 -21 -77 -105 -77 -166 l0 -48 -61 0 c-54 0 -64 -3
-90 -29 -51 -51 -29 -130 47 -166 58 -28 204 -33 280 -9 32 10 63 18 69 18 26
2 32 140 10 234 -34 146 -102 209 -178 166z"/>
<path d="M5236 5254 c-36 -36 -33 -137 7 -214 l24 -45 57 2 c67 2 158 40 176
73 28 53 -23 100 -109 100 -34 0 -40 3 -46 28 -11 48 -33 72 -65 72 -15 0 -36
-7 -44 -16z"/>
<path d="M3634 5160 c-27 -11 -68 -64 -83 -109 -20 -60 -25 -168 -11 -241 l13
-68 65 -12 c77 -15 198 -8 263 15 84 29 117 92 80 151 -22 37 -95 75 -155 81
l-42 5 4 54 c2 30 -1 67 -7 83 -19 44 -75 62 -127 41z"/>
<path d="M4806 5133 c-15 -15 -32 -46 -39 -70 -11 -42 -12 -43 -53 -43 -52 0
-76 -21 -72 -63 6 -60 95 -90 213 -73 57 9 69 29 69 121 2 133 -54 193 -118
128z"/>
<path d="M4305 5046 c-13 -13 -29 -42 -35 -65 -10 -39 -12 -41 -50 -41 -61 0
-94 -42 -74 -95 16 -40 121 -63 208 -45 52 11 56 14 66 48 21 77 4 191 -33
214 -23 15 -58 8 -82 -16z"/>
<path d="M2655 4996 c-34 -34 -42 -105 -21 -185 9 -36 19 -67 22 -70 3 -3 40
-6 83 -5 80 0 144 22 164 55 26 43 -23 95 -103 108 -19 4 -36 12 -36 19 -1 6
-2 23 -3 37 -1 31 -34 65 -61 65 -12 0 -32 -11 -45 -24z"/>
<path d="M2305 4972 c-30 -19 -85 -76 -103 -108 -8 -15 -13 -14 -48 10 -88 58
-174 22 -174 -72 0 -36 44 -103 90 -138 87 -65 237 -117 267 -92 25 21 76 110
99 175 49 139 21 243 -64 243 -21 0 -51 -8 -67 -18z"/>
<path d="M4471 4848 c-43 -23 -65 -63 -64 -117 1 -84 74 -216 155 -282 l41
-32 61 30 c242 120 316 342 112 337 -30 -1 -70 -10 -96 -23 -55 -27 -55 -27
-70 8 -26 64 -94 102 -139 79z"/>
<path d="M4984 4749 c-29 -32 -24 -119 11 -198 l29 -63 51 6 c144 17 223 83
171 143 -19 22 -34 27 -84 31 -53 4 -62 7 -62 24 0 22 -18 60 -34 70 -21 15
-63 8 -82 -13z"/>
<path d="M1001 4706 c-12 -13 -29 -41 -36 -63 -12 -36 -15 -38 -65 -43 -55 -6
-70 -19 -70 -62 0 -58 112 -99 215 -78 51 11 55 14 65 48 16 57 12 143 -8 182
-22 46 -66 53 -101 16z"/>
<path d="M1413 4708 c-27 -30 -43 -62 -43 -87 0 -17 -6 -19 -44 -18 -73 3
-108 -47 -71 -101 23 -31 114 -56 180 -47 83 10 89 18 93 127 3 83 1 96 -18
121 -27 34 -68 36 -97 5z"/>
<path d="M4144 4675 c-35 -35 -54 -86 -54 -144 l0 -49 -65 -4 c-50 -3 -70 -9
-90 -28 -58 -55 -14 -154 82 -181 66 -19 195 -15 268 8 l60 19 8 49 c18 104
-22 266 -80 328 -36 37 -93 38 -129 2z"/>
<path d="M5489 4671 c-21 -17 -24 -27 -23 -88 1 -53 7 -80 28 -120 25 -50 29
-53 64 -53 128 0 242 88 187 143 -21 22 -82 40 -115 35 -26 -4 -29 -1 -35 29
-7 39 -37 73 -64 73 -10 0 -29 -9 -42 -19z"/>
<path d="M5900 4670 c-41 -41 -38 -116 7 -209 l26 -54 61 5 c119 10 203 69
177 124 -14 30 -66 54 -121 54 -35 0 -40 3 -40 24 0 33 -37 76 -66 76 -13 0
-33 -9 -44 -20z"/>
<path d="M2643 4650 c-41 -25 -60 -61 -73 -146 -12 -74 -8 -115 18 -211 l16
-62 64 -7 c124 -13 290 33 328 91 9 15 17 40 17 56 0 59 -93 119 -185 119
l-38 0 0 61 c0 54 -3 64 -29 90 -35 34 -72 37 -118 9z"/>
<path d="M1831 4624 c-17 -14 -36 -43 -42 -65 -12 -37 -14 -39 -53 -39 -47 0
-58 -6 -75 -37 -16 -31 1 -68 41 -90 37 -20 199 -26 217 -8 17 17 32 117 25
167 -7 53 -36 98 -64 98 -10 0 -32 -12 -49 -26z"/>
<path d="M3480 4523 c-43 -16 -98 -91 -114 -157 -6 -23 -11 -27 -29 -21 -12 3
-43 9 -69 12 -43 5 -50 3 -78 -25 -81 -81 1 -187 176 -227 70 -17 187 -16 203
1 44 48 64 296 28 361 -28 53 -70 73 -117 56z"/>
<path d="M2167 4336 c-34 -32 -58 -90 -60 -148 l-2 -48 -53 0 c-96 0 -142 -47
-121 -125 26 -93 218 -132 381 -76 l53 18 0 124 c-1 136 -18 194 -72 252 -35
36 -89 37 -126 3z"/>
<path d="M5224 4321 c-74 -45 -85 -204 -26 -351 l30 -75 72 2 c121 4 259 56
301 114 28 39 25 90 -7 123 -32 32 -81 46 -156 46 l-58 0 0 34 c0 105 -76 156
-156 107z"/>
<path d="M1434 4271 c-40 -24 -67 -81 -72 -153 l-4 -58 -65 0 c-55 0 -67 -4
-88 -25 -38 -37 -35 -97 8 -140 42 -42 89 -55 198 -55 79 0 178 20 202 41 5 4
9 50 9 102 0 152 -42 265 -108 293 -42 18 -43 18 -80 -5z"/>
<path d="M6031 4257 c-28 -35 -42 -91 -40 -168 l2 -79 55 -16 c68 -20 164 -14
193 12 43 39 10 102 -67 129 -37 12 -38 14 -35 55 2 29 -3 48 -15 61 -20 22
-76 26 -93 6z"/>
<path d="M4583 4245 c-40 -17 -70 -65 -79 -124 -10 -63 11 -185 44 -253 l27
-58 46 0 c112 0 245 45 302 100 30 31 37 45 37 78 0 32 -6 45 -30 65 -35 30
-124 51 -174 41 -36 -6 -36 -6 -36 30 0 41 -20 95 -41 113 -24 20 -63 23 -96
8z"/>
<path d="M849 4215 c-22 -12 -49 -58 -62 -105 -2 -10 -15 -14 -45 -12 -64 5
-101 -44 -72 -97 21 -40 138 -63 229 -45 25 5 33 13 41 43 23 83 7 201 -30
221 -24 13 -29 12 -61 -5z"/>
<path d="M3066 4098 c-16 -23 -21 -102 -10 -146 13 -45 162 -66 178 -25 8 21
-19 61 -55 81 -20 12 -29 25 -29 42 0 33 -26 70 -50 70 -10 0 -26 -10 -34 -22z"/>
<path d="M3848 4093 c-14 -16 -29 -38 -32 -49 -4 -14 -18 -24 -38 -28 -41 -8
-58 -23 -58 -52 0 -30 27 -44 83 -44 72 0 105 16 117 58 14 53 12 94 -6 120
-20 29 -35 28 -66 -5z"/>
<path d="M2682 4070 c-40 -25 -71 -89 -72 -146 0 -56 33 -158 69 -216 16 -25
66 -92 110 -148 118 -147 143 -206 121 -277 -25 -77 -55 -88 -151 -54 -157 54
-394 217 -728 500 -138 117 -158 131 -192 131 -29 0 -42 -6 -59 -27 -65 -82
37 -269 278 -510 75 -75 107 -113 91 -108 -54 17 -296 133 -481 231 -204 108
-241 120 -285 89 -57 -40 -28 -136 70 -232 73 -72 192 -159 296 -216 41 -22
70 -42 65 -44 -6 -2 -98 24 -205 58 -273 87 -264 85 -294 71 -14 -6 -30 -23
-36 -36 -29 -63 39 -144 183 -216 107 -53 108 -58 11 -35 -72 17 -103 10 -128
-29 -22 -34 -12 -78 28 -118 81 -81 304 -136 702 -173 324 -30 499 -68 618
-132 56 -31 137 -113 165 -169 92 -181 77 -491 -48 -1028 -46 -196 -47 -214
-19 -250 l21 -26 290 2 291 3 18 25 c25 34 37 226 45 735 15 919 -59 1554
-214 1833 -14 26 -65 88 -112 137 -146 154 -215 230 -285 314 -58 70 -71 81
-98 81 -18 0 -47 -9 -65 -20z m103 -150 c20 -25 107 -120 192 -212 86 -92 167
-186 180 -210 148 -258 226 -1055 194 -1978 -6 -179 -14 -358 -17 -397 l-7
-73 -229 0 c-219 0 -229 1 -223 19 19 61 89 386 112 519 22 129 27 190 27 342
1 165 -2 194 -23 267 -56 198 -180 318 -397 386 -114 36 -218 54 -449 77 -324
33 -523 65 -563 91 -15 9 -15 10 0 5 43 -13 229 -28 295 -24 88 6 128 29 128
73 0 40 -35 62 -135 85 -168 40 -401 123 -386 137 2 3 48 -10 103 -27 163 -53
365 -101 425 -103 66 -2 98 19 98 65 0 42 -29 65 -185 147 -77 40 -183 101
-235 136 -100 67 -209 159 -199 169 3 3 75 -31 160 -76 304 -162 558 -268 640
-268 65 0 98 52 66 106 -7 11 -52 56 -102 101 -151 134 -290 290 -354 396 -13
21 -22 40 -20 42 2 2 36 -24 74 -57 347 -298 647 -498 808 -539 62 -15 141 -7
175 18 47 35 77 108 77 188 0 93 -34 162 -156 315 -97 121 -134 188 -145 256
-6 43 11 94 26 78 4 -5 25 -29 45 -54z"/>
<path d="M4162 4058 c-86 -101 -178 -204 -284 -316 -65 -70 -135 -152 -153
-183 -102 -166 -174 -541 -205 -1058 -22 -377 -8 -1398 21 -1489 6 -17 19 -37
29 -42 11 -6 133 -10 299 -10 370 0 355 -15 286 274 -70 299 -97 467 -102 656
-6 190 7 275 57 376 80 162 262 242 648 284 103 11 232 25 287 31 299 32 517
102 566 182 54 89 -4 149 -118 122 -93 -23 -103 -17 -28 16 181 77 269 188
205 257 -29 31 -58 28 -195 -18 -123 -41 -317 -100 -331 -100 -4 0 34 25 86
55 245 145 380 278 380 375 0 41 -39 80 -80 80 -19 0 -121 -47 -283 -129 -226
-116 -426 -211 -445 -211 -4 0 39 46 94 103 125 126 198 214 246 292 88 145
80 255 -19 255 -35 0 -49 -10 -193 -134 -393 -338 -717 -539 -825 -512 -32 8
-55 57 -55 116 0 57 34 118 140 250 117 148 151 216 158 315 5 88 -6 122 -55
165 -47 42 -95 41 -131 -2z m84 -104 c19 -77 -21 -166 -147 -324 -114 -143
-152 -217 -151 -303 0 -174 116 -256 283 -198 180 62 472 261 777 529 77 68
88 68 46 -1 -62 -98 -174 -219 -406 -438 -59 -56 -68 -90 -32 -126 23 -23 31
-25 78 -20 80 8 244 76 525 218 140 71 256 127 258 125 2 -2 -24 -29 -57 -59
-82 -76 -218 -164 -381 -247 -168 -85 -208 -126 -179 -180 30 -57 129 -46 454
51 92 28 170 48 173 46 12 -13 -226 -96 -395 -137 -51 -12 -102 -30 -114 -39
-23 -19 -27 -63 -8 -86 35 -42 201 -46 405 -10 21 4 26 3 15 -4 -40 -25 -263
-61 -566 -91 -315 -31 -450 -61 -585 -131 -205 -106 -291 -282 -291 -589 1
-207 39 -461 118 -772 13 -53 24 -102 24 -107 0 -8 -69 -11 -227 -9 l-228 3
-7 90 c-14 202 -21 1061 -9 1280 27 519 84 857 174 1042 23 48 62 99 136 178
125 132 270 293 285 318 15 24 25 21 32 -9z"/>
<path d="M3411 3927 c-13 -6 -34 -25 -45 -40 -29 -40 -35 -174 -11 -252 16
-50 21 -55 53 -61 107 -20 261 21 292 79 13 24 13 30 0 54 -22 40 -73 70 -130
78 l-50 7 0 38 c0 54 -18 87 -53 100 -16 5 -30 10 -31 10 -1 0 -12 -6 -25 -13z"/>
<path d="M5808 3824 c-57 -30 -80 -128 -59 -250 12 -68 51 -161 74 -177 7 -4
35 -5 62 -2 189 22 315 92 315 176 0 69 -66 109 -182 109 l-58 0 0 34 c0 102
-72 154 -152 110z"/>
<path d="M1040 3783 c-48 -18 -87 -86 -96 -168 -6 -53 -8 -56 -33 -55 -70 5
-93 -1 -122 -29 -16 -16 -29 -39 -29 -51 0 -41 30 -86 73 -110 58 -33 198 -40
296 -14 80 20 81 21 81 131 0 191 -79 329 -170 296z"/>
<path d="M510 3713 c-17 -16 -37 -45 -44 -67 -13 -37 -15 -38 -61 -40 -69 -3
-97 -51 -60 -103 27 -39 140 -60 215 -40 52 14 58 26 59 135 1 76 -15 124 -44
136 -26 10 -33 8 -65 -21z"/>
<path d="M6442 3667 c-13 -13 -27 -39 -32 -58 -11 -37 -13 -132 -4 -165 8 -28
62 -44 153 -44 63 0 75 3 96 25 14 13 25 31 25 41 0 25 -64 83 -99 90 -29 6
-31 9 -29 50 2 77 -62 112 -110 61z"/>
<path d="M6225 3291 c-55 -24 -151 -115 -193 -180 -31 -49 -33 -55 -21 -80 23
-44 141 -155 197 -184 72 -39 137 -40 169 -2 39 44 27 126 -28 197 -16 20 -29
39 -29 41 0 2 20 25 45 49 47 47 57 86 35 129 -26 47 -106 62 -175 30z"/>
<path d="M616 3267 c-20 -20 -26 -36 -26 -70 0 -44 37 -134 66 -157 12 -11 7
-19 -30 -54 -51 -47 -64 -83 -46 -127 49 -118 252 -46 370 132 l38 58 -27 43
c-67 103 -183 189 -266 196 -47 4 -57 1 -79 -21z"/>
<path d="M1015 2800 c-114 -21 -185 -70 -185 -129 0 -59 73 -114 167 -127 l49
-6 0 -63 c-1 -54 3 -67 23 -89 19 -20 34 -26 69 -26 58 0 103 43 126 120 20
66 21 181 2 243 -7 25 -11 48 -8 51 21 22 -160 41 -243 26z"/>
<path d="M5758 2798 c-55 -10 -58 -12 -67 -47 -29 -107 -20 -244 19 -322 63
-122 195 -64 219 96 l6 40 68 0 c59 1 70 4 94 28 65 64 10 166 -107 197 -58
15 -171 19 -232 8z"/>
<path d="M6319 2718 c-41 -11 -49 -30 -49 -122 0 -108 33 -157 94 -142 27 7
55 50 65 100 6 27 11 30 48 32 50 2 61 9 73 40 30 77 -98 128 -231 92z"/>
<path d="M502 2695 c-52 -16 -82 -41 -82 -67 0 -34 52 -76 103 -83 45 -7 46
-8 49 -48 6 -83 92 -99 123 -22 30 71 6 217 -38 229 -36 10 -109 6 -155 -9z"/>
</g>
</svg>
