<svg width="176" height="40" viewBox="0 0 176 40" fill="none" xmlns="http://www.w3.org/2000/svg">
<g clip-path="url(#clip0_498_554)">
<path d="M2.70592 21.0229C2.22435 21.0944 2.06567 21.5472 2.15415 21.9823C2.24016 22.4053 2.46467 22.7783 2.76748 23.0748C2.43676 23.2753 2.04358 23.5771 1.99317 23.951C1.93484 24.3838 2.33896 24.7263 2.73379 24.758C3.23457 24.7982 3.72931 24.4859 4.108 24.1848C4.48619 23.884 4.86602 23.4746 5.05258 23.0156C5.13394 23.0027 5.20391 22.9247 5.15189 22.8331C4.89302 22.3775 4.56156 21.9746 4.15462 21.6459C3.77645 21.3404 3.21731 20.947 2.70592 21.0229Z" fill="#9B2C87"/>
<path d="M4.13395 25.3341C3.85455 25.73 4.07802 26.1532 4.45883 26.3862C4.82906 26.6126 5.25798 26.7052 5.68465 26.6891C5.60405 27.0642 5.55493 27.5535 5.795 27.8448C6.07296 28.1821 6.60328 28.1243 6.89871 27.8613C7.27344 27.5278 7.38493 26.9582 7.42457 26.4798C7.46419 26.0021 7.42507 25.4491 7.21626 25.0016C7.26282 24.9341 7.25375 24.8305 7.15057 24.8055C6.63722 24.6814 6.11256 24.6455 5.59044 24.7147C5.10526 24.779 4.43066 24.9138 4.13395 25.3341Z" fill="#410B72"/>
<path d="M6.13913 17.4404C5.72313 17.1864 5.30705 17.4293 5.09217 17.8169C4.88324 18.1938 4.8131 18.6213 4.85276 19.0408C4.46867 18.9815 3.97075 18.9594 3.68908 19.2115C3.36299 19.5035 3.45049 20.0228 3.73289 20.2997C4.09107 20.6509 4.67367 20.7302 5.16001 20.7435C5.6457 20.7569 6.20326 20.6887 6.64475 20.4589C6.71561 20.5012 6.81996 20.4867 6.83956 20.3837C6.93706 19.8713 6.94459 19.3526 6.84594 18.8419C6.75426 18.3674 6.58089 17.7101 6.13913 17.4404Z" fill="#764095"/>
<path d="M9.27292 13.696C8.85692 13.442 8.44084 13.6849 8.22595 14.0726C8.01703 14.4494 7.94689 14.8769 7.98655 15.2964C7.60246 15.2371 7.10454 15.215 6.82287 15.4672C6.49678 15.7591 6.58428 16.2784 6.86668 16.5553C7.22485 16.9065 7.80746 16.9858 8.2938 16.9991C8.77948 17.0125 9.33705 16.9443 9.77854 16.7145C9.84939 16.7568 9.95375 16.7423 9.97335 16.6393C10.0708 16.1269 10.0784 15.6082 9.97973 15.0975C9.88805 14.623 9.71468 13.9657 9.27292 13.696Z" fill="#764095"/>
<path d="M14.9028 13.0747C14.4868 12.8207 14.0707 13.0636 13.8558 13.4512C13.6469 13.8281 13.5768 14.2556 13.6164 14.675C13.2323 14.6158 12.7344 14.5937 12.4527 14.8458C12.1267 15.1377 12.2142 15.6571 12.4966 15.934C12.8547 16.2852 13.4373 16.3644 13.9237 16.3778C14.4094 16.3912 14.9669 16.3229 15.4084 16.0932C15.4793 16.1354 15.5836 16.1209 15.6032 16.018C15.7007 15.5056 15.7083 14.9868 15.6096 14.4762C15.5179 14.0017 15.3446 13.3444 14.9028 13.0747Z" fill="#9B2C87"/>
<path d="M20.4332 13.317C20.6906 12.9066 20.4444 12.4962 20.0514 12.2842C19.6694 12.0781 19.236 12.009 18.8109 12.0481C18.8709 11.6692 18.8933 11.178 18.6377 10.9001C18.3417 10.5785 17.8153 10.6648 17.5346 10.9434C17.1786 11.2968 17.0984 11.8716 17.0849 12.3514C17.0714 12.8305 17.1406 13.3806 17.3735 13.8161C17.3307 13.886 17.3454 13.9889 17.4498 14.0083C17.9691 14.1044 18.495 14.1118 19.0126 14.0144C19.4936 13.9239 20.1598 13.7529 20.4332 13.317Z" fill="#764095"/>
<path d="M25.6922 18.4206C25.8955 18.0897 25.6875 17.7504 25.363 17.5709C25.0475 17.3963 24.6924 17.3327 24.3458 17.3577C24.3885 17.0492 24.3984 16.6484 24.185 16.4173C23.9379 16.1497 23.5094 16.2116 23.2849 16.4345C23.0002 16.7173 22.9443 17.1853 22.9414 17.577C22.9385 17.968 23.0043 18.4184 23.2019 18.7779C23.1681 18.8343 23.1818 18.9186 23.2674 18.9361C23.6932 19.0231 24.1228 19.0378 24.5438 18.9668C24.9351 18.9008 25.4763 18.7721 25.6922 18.4206Z" fill="#410B72"/>
<path d="M24.7335 11.958C24.3881 11.6147 23.9271 11.755 23.628 12.0826C23.3371 12.4012 23.1695 12.8011 23.1104 13.2185C22.7508 13.0721 22.2719 12.9356 21.9394 13.1159C21.5544 13.3247 21.5186 13.8504 21.7288 14.1851C21.9952 14.6097 22.5432 14.8214 23.0129 14.9468C23.482 15.072 24.04 15.1343 24.5227 15.0127C24.5817 15.0702 24.6865 15.0802 24.7296 14.9845C24.9436 14.5083 25.0716 14.0051 25.0945 13.4853C25.1158 13.0023 25.1002 12.3225 24.7335 11.958Z" fill="#9B2C87"/>
<path d="M41.2057 27.8845C41.5942 28.1785 42.0324 27.9781 42.2849 27.6137C42.5304 27.2593 42.6429 26.8409 42.6453 26.4195C43.0215 26.5166 43.5147 26.588 43.8201 26.365C44.1737 26.1069 44.1385 25.5814 43.8852 25.2778C43.5639 24.8928 42.9921 24.7561 42.5096 24.6946C42.0277 24.6331 41.4661 24.6457 41.0039 24.8305C40.9377 24.7815 40.8324 24.7855 40.8026 24.8861C40.6545 25.3863 40.5952 25.9018 40.6423 26.4197C40.6862 26.901 40.7931 27.5723 41.2057 27.8845Z" fill="#9B2C87"/>
<path d="M45.5789 24.6298C46.0584 24.5455 46.2046 24.0886 46.1043 23.6561C46.0068 23.2355 45.7722 22.8686 45.4614 22.5802C45.7865 22.371 46.1713 22.0588 46.2115 21.6837C46.258 21.2495 45.8447 20.9178 45.4492 20.8966C44.9475 20.8698 44.4615 21.1951 44.0912 21.5062C43.7213 21.8169 43.3528 22.2362 43.1789 22.7C43.0979 22.7152 43.0301 22.7949 43.0846 22.8851C43.3558 23.3337 43.6981 23.7277 44.1138 24.0455C44.5002 24.3408 45.0698 24.7192 45.5789 24.6298Z" fill="#9B2C87"/>
<path d="M44.5844 19.2289C44.7855 18.7883 44.4874 18.4136 44.07 18.2548C43.6642 18.1005 43.2255 18.0886 42.8093 18.1831C42.8189 17.7995 42.7764 17.3095 42.4864 17.0675C42.1507 16.7872 41.6403 16.9417 41.3988 17.2547C41.0925 17.6517 41.0887 18.2321 41.1385 18.7096C41.1882 19.1864 41.3292 19.7227 41.6174 20.1241C41.5842 20.199 41.6123 20.2992 41.7183 20.3047C42.2458 20.332 42.768 20.2706 43.2682 20.1063C43.733 19.9537 44.3709 19.6968 44.5844 19.2289Z" fill="#9B2C87"/>
<path d="M40.2055 15.4877C40.4066 15.0471 40.1085 14.6724 39.6911 14.5136C39.2853 14.3593 38.8466 14.3474 38.4304 14.4418C38.44 14.0583 38.3974 13.5683 38.1075 13.3262C37.7718 13.046 37.2614 13.2005 37.0199 13.5135C36.7136 13.9105 36.7097 14.4909 36.7596 14.9683C36.8093 15.4452 36.9503 15.9815 37.2385 16.3829C37.2053 16.4578 37.2334 16.5579 37.3394 16.5635C37.8669 16.5908 38.3891 16.5294 38.8893 16.3651C39.3541 16.2124 39.992 15.9556 40.2055 15.4877Z" fill="#410B72"/>
<path d="M35.1987 16.1091C35.3998 15.6685 35.1016 15.2937 34.6842 15.1349C34.2784 14.9806 33.8398 14.9687 33.4235 15.0632C33.4331 14.6796 33.3906 14.1896 33.1007 13.9476C32.765 13.6674 32.2546 13.8219 32.0131 14.1348C31.7068 14.5318 31.7029 15.1122 31.7527 15.5897C31.8024 16.0665 31.9435 16.6029 32.2317 17.0042C32.1985 17.0791 32.2266 17.1793 32.3326 17.1848C32.8601 17.2122 33.3822 17.1507 33.8824 16.9864C34.3473 16.8338 34.9851 16.577 35.1987 16.1091Z" fill="#9B2C87"/>
<path d="M34.7591 10.5318C34.7745 10.0475 34.3552 9.81392 33.9092 9.8257C33.4756 9.83714 33.0666 9.99295 32.7193 10.2387C32.5802 9.87997 32.3521 9.44256 31.9914 9.32874C31.5739 9.197 31.163 9.53412 31.0611 9.91569C30.9318 10.3996 31.1521 10.9384 31.3821 11.3615C31.6119 11.784 31.9487 12.2268 32.3692 12.4888C32.3675 12.5708 32.432 12.6528 32.5319 12.6176C33.0287 12.4423 33.4863 12.1868 33.8841 11.8446C34.2537 11.5265 34.7427 11.0462 34.7591 10.5318Z" fill="#764095"/>
<path d="M27.6578 9.76624C27.9519 9.3811 27.7446 8.9498 27.3728 8.70275C27.0114 8.46254 26.5863 8.354 26.1594 8.35407C26.2541 7.98222 26.3216 7.49509 26.0927 7.19498C25.8277 6.84755 25.2956 6.88537 24.9905 7.13713C24.6034 7.45646 24.4705 8.02149 24.4129 8.49805C24.3553 8.97398 24.3735 9.52808 24.5653 9.98313C24.5162 10.0488 24.5214 10.1527 24.6235 10.1815C25.1318 10.3248 25.6547 10.3803 26.1791 10.3307C26.6663 10.2846 27.3455 10.1752 27.6578 9.76624Z" fill="#9B2C87"/>
<path d="M31.7904 5.3971C31.4963 5.01196 31.7037 4.58066 32.0754 4.33361C32.4368 4.0934 32.8619 3.98486 33.2889 3.98493C33.1942 3.61308 33.1266 3.12595 33.3555 2.82584C33.6206 2.47841 34.1527 2.51622 34.4578 2.76799C34.8448 3.08732 34.9777 3.65235 35.0354 4.12891C35.0929 4.60484 35.0747 5.15894 34.8829 5.61399C34.932 5.67968 34.9269 5.78355 34.8247 5.81235C34.3164 5.95564 33.7935 6.01114 33.2692 5.96157C32.7819 5.91549 32.1028 5.80611 31.7904 5.3971Z" fill="#400B72"/>
<path d="M29.8993 10.5465C29.4806 10.2971 29.0672 10.5445 28.8566 10.9344C28.6518 11.3136 28.5863 11.7418 28.6306 12.1608C28.2459 12.1058 27.7478 12.0891 27.4689 12.3443C27.146 12.6398 27.2392 13.1581 27.5246 13.4319C27.8867 13.7792 28.4701 13.8521 28.9565 13.8601C29.4423 13.8682 29.9991 13.7939 30.4381 13.5593C30.5094 13.6008 30.6136 13.5852 30.632 13.482C30.7239 12.9686 30.7257 12.4498 30.6215 11.9402C30.5246 11.4668 30.344 10.8114 29.8993 10.5465Z" fill="#764095"/>
<path d="M22.3886 6.1742C21.9698 5.92477 21.5564 6.17217 21.3458 6.56213C21.141 6.94127 21.0756 7.36951 21.1199 7.7885C20.7352 7.73345 20.237 7.71677 19.9581 7.97197C19.6353 8.26744 19.7285 8.78578 20.0139 9.05958C20.3759 9.40688 20.9593 9.47976 21.4458 9.48781C21.9316 9.49588 22.4884 9.42157 22.9273 9.18703C22.9986 9.22849 23.1028 9.21285 23.1213 9.10967C23.2132 8.59626 23.215 8.07744 23.1107 7.56792C23.0139 7.09445 22.8333 6.43907 22.3886 6.1742Z" fill="#764095"/>
<path d="M16.7548 3.05774C16.336 2.80831 15.9226 3.05572 15.712 3.44568C15.5073 3.82482 15.4418 4.25305 15.4861 4.67205C15.1014 4.617 14.6032 4.60032 14.3243 4.85551C14.0015 5.15098 14.0947 5.66932 14.3801 5.94313C14.7421 6.29043 15.3256 6.36331 15.812 6.37136C16.2978 6.37942 16.8546 6.30511 17.2935 6.07057C17.3649 6.11204 17.469 6.0964 17.4875 5.99321C17.5794 5.4798 17.5812 4.96098 17.477 4.45147C17.3801 3.978 17.1995 3.32261 16.7548 3.05774Z" fill="#410B72"/>
<path d="M29.5493 3.4738C29.1675 3.17112 28.7249 3.36165 28.4643 3.72035C28.2108 4.06908 28.0889 4.48493 28.077 4.90614C27.703 4.80065 27.2116 4.71818 26.9012 4.93425C26.5419 5.18441 26.5652 5.71058 26.8116 6.01978C27.1241 6.41197 27.6926 6.56144 28.1736 6.6338C28.6539 6.7061 29.2156 6.70612 29.6818 6.53172C29.747 6.58226 29.8523 6.58055 29.8844 6.48071C30.0438 5.98392 30.1147 5.46986 30.0793 4.95098C30.0463 4.4688 29.9547 3.79522 29.5493 3.4738Z" fill="#9B2C87"/>
<path d="M16.2539 8.62863C16.0223 8.2013 15.5407 8.20538 15.1602 8.43518C14.7902 8.65859 14.5147 8.99495 14.338 9.3789C14.036 9.13653 13.617 8.86983 13.247 8.94876C12.8185 9.04017 12.633 9.53462 12.7377 9.91544C12.8705 10.3985 13.3339 10.7569 13.7473 11.0102C14.1601 11.2632 14.6761 11.4811 15.173 11.5011C15.2129 11.573 15.3104 11.6123 15.3791 11.5326C15.7209 11.1361 15.9883 10.6894 16.1598 10.197C16.3192 9.73937 16.4999 9.08241 16.2539 8.62863Z" fill="#9B2C87"/>
<path d="M12.1724 10.944C11.9385 10.7656 11.6476 10.8973 11.4673 11.1289C11.2921 11.354 11.1988 11.6174 11.1758 11.881C10.9397 11.8257 10.6274 11.7881 10.4205 11.9319C10.1809 12.0984 10.1767 12.4267 10.3235 12.613C10.5098 12.8493 10.8691 12.9266 11.175 12.9582C11.4806 12.9898 11.8409 12.9739 12.1464 12.8517C12.1864 12.8815 12.254 12.8774 12.2782 12.8141C12.3985 12.499 12.4627 12.1757 12.4588 11.8524C12.4552 11.5519 12.4208 11.1335 12.1724 10.944Z" fill="#9B2C87"/>
<path d="M9.04545 10.3261C8.81151 10.1477 8.52062 10.2794 8.34036 10.5109C8.1651 10.7361 8.0718 10.9995 8.04883 11.2631C7.81277 11.2078 7.50049 11.1701 7.29351 11.314C7.05391 11.4805 7.04976 11.8088 7.1966 11.9951C7.38283 12.2314 7.74212 12.3087 8.04809 12.3403C8.35365 12.3719 8.71399 12.356 9.01944 12.2338C9.05941 12.2635 9.12705 12.2595 9.15123 12.1962C9.27156 11.8811 9.33573 11.5578 9.33184 11.2345C9.32821 10.934 9.29387 10.5155 9.04545 10.3261Z" fill="#410B72"/>
<path d="M5.91068 10.3261C5.67675 10.1477 5.38585 10.2794 5.2056 10.5109C5.03034 10.7361 4.93703 10.9995 4.91407 11.2631C4.67801 11.2078 4.36572 11.1701 4.15875 11.314C3.91914 11.4805 3.91499 11.8088 4.06183 11.9951C4.24807 12.2314 4.60736 12.3087 4.91332 12.3403C5.21888 12.3719 5.57923 12.356 5.88468 12.2338C5.92464 12.2635 5.99228 12.2595 6.01647 12.1962C6.13679 11.8811 6.20097 11.5578 6.19707 11.2345C6.19344 10.934 6.15911 10.5155 5.91068 10.3261Z" fill="#9B2C87"/>
<path d="M4.66361 14.0673C4.42968 13.8889 4.13878 14.0206 3.95853 14.2522C3.78326 14.4773 3.68996 14.7407 3.667 15.0043C3.43094 14.949 3.11865 14.9113 2.91168 15.0552C2.67207 15.2217 2.66792 15.55 2.81476 15.7363C3.001 15.9726 3.36029 16.0499 3.66625 16.0815C3.97181 16.1131 4.33215 16.0972 4.63761 15.975C4.67757 16.0047 4.74521 16.0007 4.7694 15.9374C4.88972 15.6223 4.9539 15.299 4.95 14.9757C4.94637 14.6752 4.91204 14.2568 4.66361 14.0673Z" fill="#9B2C87"/>
<path d="M2.1597 17.8083C1.92577 17.6299 1.63488 17.7615 1.45462 17.9931C1.27936 18.2183 1.18605 18.4817 1.16309 18.7453C0.927029 18.6899 0.614743 18.6523 0.407771 18.7962C0.168166 18.9627 0.164014 19.2909 0.310853 19.4772C0.497092 19.7135 0.856381 19.7909 1.16235 19.8225C1.4679 19.8541 1.82825 19.8382 2.1337 19.716C2.17366 19.7457 2.2413 19.7417 2.26549 19.6783C2.38581 19.3633 2.44999 19.04 2.4461 18.7166C2.44247 18.4162 2.40813 17.9977 2.1597 17.8083Z" fill="#410B72"/>
<path d="M0.948228 25.8457C0.799063 26.0971 0.968877 26.3652 1.22491 26.5123C1.47384 26.6554 1.75062 26.7135 2.01858 26.7026C1.99336 26.9406 1.99579 27.251 2.16706 27.4354C2.36536 27.6488 2.69584 27.6115 2.86418 27.4442C3.0777 27.2321 3.10912 26.8708 3.10146 26.5673C3.09383 26.2643 3.03141 25.9137 2.86918 25.6302C2.89393 25.5873 2.88114 25.5217 2.81438 25.506C2.48219 25.428 2.1489 25.406 1.82438 25.4507C1.52282 25.4922 1.10663 25.5786 0.948228 25.8457Z" fill="#9B2C87"/>
<path d="M12.9492 5.62751C12.7414 5.41955 12.4356 5.51143 12.226 5.71712C12.0222 5.9171 11.8945 6.16587 11.8364 6.42421C11.61 6.33797 11.3057 6.25917 11.0814 6.37431C10.8217 6.50762 10.7736 6.83253 10.8941 7.03676C11.0469 7.2958 11.3924 7.4202 11.6912 7.4922C11.9897 7.56411 12.3487 7.59622 12.6677 7.51561C12.7033 7.55042 12.7709 7.55539 12.8033 7.49582C12.9647 7.19942 13.0716 6.88734 13.1111 6.56622C13.1478 6.26781 13.1699 5.84834 12.9492 5.62751Z" fill="#9B2C87"/>
<path d="M19.7086 9.79157C19.856 9.53911 19.6844 9.27221 19.4274 9.12678C19.1775 8.98538 18.9003 8.92919 18.6324 8.94182C18.656 8.70364 18.6515 8.3933 18.479 8.21008C18.2793 7.99797 17.949 8.03758 17.7818 8.20594C17.5698 8.41947 17.5408 8.78105 17.5505 9.08441C17.5602 9.38736 17.625 9.73757 17.7891 10.02C17.7647 10.063 17.7779 10.1286 17.8448 10.1438C18.1775 10.2195 18.5109 10.2393 18.8351 10.1924C19.1364 10.1489 19.552 10.0597 19.7086 9.79157Z" fill="#9B2C87"/>
<path d="M20.6317 2.51215C20.4855 2.25765 20.1665 2.26804 19.9107 2.4132C19.6619 2.55433 19.4738 2.76218 19.3503 2.99716C19.1544 2.85563 18.8815 2.7013 18.635 2.7551C18.3498 2.8174 18.2186 3.11933 18.2815 3.3478C18.3613 3.63759 18.6621 3.84661 18.9316 3.99295C19.2007 4.13911 19.5386 4.26234 19.8673 4.26624C19.8926 4.30904 19.9564 4.33118 20.0033 4.28189C20.2364 4.03662 20.4209 3.76219 20.5429 3.46171C20.6561 3.18248 20.7869 2.7824 20.6317 2.51215Z" fill="#9B2C87"/>
<path d="M24.3942 3.26256C24.4968 2.98889 24.2826 2.7545 24.0048 2.65422C23.7346 2.55671 23.452 2.54781 23.1902 2.60519C23.1732 2.36638 23.1163 2.06113 22.9154 1.90941C22.6827 1.73376 22.364 1.82822 22.2277 2.02227C22.0547 2.2684 22.0873 2.6298 22.1481 2.92729C22.2088 3.2244 22.3318 3.55885 22.5413 3.80977C22.5244 3.8563 22.5486 3.91876 22.617 3.92255C22.9577 3.94141 23.2896 3.90493 23.6012 3.80437C23.8907 3.71091 24.2851 3.55319 24.3942 3.26256Z" fill="#9B2C87"/>
<path d="M26.1363 5.44201C26.239 5.16833 26.0248 4.93394 25.747 4.83366C25.4768 4.73615 25.1942 4.72725 24.9324 4.78464C24.9154 4.54583 24.8585 4.24058 24.6575 4.08885C24.4249 3.9132 24.1062 4.00766 23.9698 4.20172C23.7969 4.44785 23.8295 4.80924 23.8903 5.10674C23.951 5.40384 24.074 5.7383 24.2835 5.98921C24.2666 6.03574 24.2908 6.0982 24.3592 6.102C24.6999 6.12085 25.0318 6.08437 25.3433 5.98381C25.6329 5.89035 26.0273 5.73263 26.1363 5.44201Z" fill="#410B72"/>
<path d="M22.1304 16.3652C22.2587 16.2162 22.1704 15.9966 22.0105 15.8459C21.855 15.6995 21.6715 15.6076 21.487 15.5657C21.529 15.4032 21.5597 15.1848 21.4617 15.0237C21.3482 14.8371 21.118 14.8023 20.9854 14.8887C20.8171 14.9982 20.7579 15.2461 20.7315 15.4606C20.7052 15.6748 20.7114 15.9326 20.7929 16.1616C20.7715 16.1872 20.7734 16.2357 20.8175 16.259C21.0368 16.3751 21.2626 16.4521 21.4895 16.4807C21.7002 16.5073 21.9942 16.5235 22.1304 16.3652Z" fill="#9B2C87"/>
<path d="M27.2237 14.92C27.0583 14.8114 26.8482 14.9234 26.7161 15.0977C26.5877 15.2671 26.5176 15.4575 26.4978 15.6433C26.3293 15.6209 26.106 15.6161 25.9558 15.7309C25.782 15.8637 25.775 16.0934 25.8779 16.2135C26.0085 16.3658 26.265 16.3951 26.484 16.3961C26.7026 16.3972 26.961 16.3613 27.1815 16.2549C27.2097 16.2729 27.2583 16.2654 27.2764 16.2195C27.3665 15.9911 27.4165 15.7607 27.4178 15.535C27.4189 15.3253 27.3995 15.0353 27.2237 14.92Z" fill="#9B2C87"/>
<path d="M20.6386 5.06344C20.4983 4.80569 20.1792 4.80891 19.9201 4.94829C19.6682 5.08381 19.4753 5.28739 19.3465 5.51957C19.1539 5.37365 18.8846 5.21321 18.6371 5.26146C18.3505 5.31734 18.2124 5.61627 18.27 5.84612C18.3431 6.13766 18.639 6.35341 18.905 6.50579C19.1707 6.65797 19.5057 6.78878 19.8342 6.80006C19.8584 6.84343 19.9218 6.867 19.9697 6.81877C20.2084 6.57878 20.3992 6.30854 20.528 6.01085C20.6476 5.73421 20.7875 5.33714 20.6386 5.06344Z" fill="#9B2C87"/>
<path d="M30.8957 7.73765C30.6547 7.56889 30.3694 7.71217 30.1987 7.95084C30.0327 8.18289 29.9502 8.44981 29.938 8.71413C29.6999 8.66838 29.3863 8.64341 29.1853 8.7955C28.9527 8.97159 28.9619 9.29969 29.1162 9.47988C29.312 9.70843 29.6741 9.77115 29.9812 9.79036C30.2878 9.80955 30.6472 9.7791 30.9475 9.64464C30.9886 9.67274 31.056 9.66595 31.0776 9.60172C31.185 9.28209 31.236 8.95646 31.2189 8.63357C31.203 8.33353 31.1517 7.91686 30.8957 7.73765Z" fill="#9B2C87"/>
<path d="M34.6535 7.11314C34.4125 6.94438 34.1272 7.08766 33.9565 7.32633C33.7905 7.55838 33.708 7.8253 33.6958 8.08962C33.4577 8.04386 33.1441 8.0189 32.9431 8.17099C32.7105 8.34708 32.7197 8.67518 32.874 8.85537C33.0698 9.08392 33.4319 9.14664 33.739 9.16584C34.0456 9.18504 34.405 9.15459 34.7053 9.02013C34.7464 9.04823 34.8138 9.04144 34.8354 8.97721C34.9428 8.65758 34.9938 8.33195 34.9767 8.00906C34.9608 7.70902 34.9095 7.29235 34.6535 7.11314Z" fill="#9B2C87"/>
<path d="M25.8879 0.252055C25.6469 0.0832919 25.3615 0.226574 25.1909 0.465247C25.0249 0.697296 24.9424 0.964219 24.9302 1.22853C24.692 1.18278 24.3785 1.15782 24.1775 1.3099C23.9449 1.48599 23.9541 1.81409 24.1084 1.99428C24.3041 2.22283 24.6663 2.28555 24.9733 2.30476C25.28 2.32396 25.6394 2.2935 25.9396 2.15904C25.9808 2.18714 26.0482 2.18036 26.0698 2.11612C26.1772 1.7965 26.2282 1.47086 26.2111 1.14798C26.1952 0.847938 26.1438 0.431265 25.8879 0.252055Z" fill="#9B2C87"/>
<path d="M32.5225 3.26644C32.6257 2.99298 32.412 2.75815 32.1344 2.65729C31.8645 2.55922 31.5819 2.54973 31.3199 2.60657C31.3034 2.36773 31.2472 2.06236 31.0465 1.91022C30.8143 1.73409 30.4953 1.82788 30.3586 2.02165C30.1852 2.26742 30.2169 2.62887 30.2771 2.9265C30.3372 3.22372 30.4595 3.55843 30.6685 3.80978C30.6515 3.85628 30.6755 3.91879 30.744 3.92272C31.0846 3.94229 31.4166 3.9065 31.7284 3.80659C32.0181 3.71374 32.4129 3.55684 32.5225 3.26644Z" fill="#9B2C87"/>
<path d="M29.3965 2.64535C29.4998 2.37189 29.2861 2.13706 29.0084 2.0362C28.7385 1.93813 28.4559 1.92863 28.1939 1.98547C28.1774 1.74663 28.1212 1.44127 27.9206 1.28912C27.6883 1.11299 27.3694 1.20678 27.2326 1.40055C27.0592 1.64632 27.091 2.00778 27.1512 2.3054C27.2113 2.60263 27.3336 2.93734 27.5425 3.18869C27.5256 3.23518 27.5496 3.29769 27.618 3.30163C27.9586 3.3212 28.2906 3.2854 28.6024 3.18549C28.8921 3.09264 29.2869 2.93574 29.3965 2.64535Z" fill="#9B2C87"/>
<path d="M39.4122 7.63558C39.5154 7.36212 39.3017 7.12729 39.024 7.02643C38.7541 6.92836 38.4715 6.91887 38.2095 6.97571C38.1931 6.73687 38.1368 6.4315 37.9362 6.27936C37.7039 6.10323 37.385 6.19702 37.2483 6.39079C37.0748 6.63656 37.1066 6.99802 37.1668 7.29564C37.2269 7.59286 37.3492 7.92757 37.5581 8.17892C37.5412 8.22542 37.5652 8.28793 37.6336 8.29186C37.9743 8.31143 38.3062 8.27564 38.618 8.17573C38.9077 8.08288 39.3025 7.92598 39.4122 7.63558Z" fill="#764095"/>
<path d="M37.5333 11.3768C37.6365 11.1033 37.4228 10.8685 37.1451 10.7676C36.8752 10.6696 36.5926 10.6601 36.3306 10.7169C36.3142 10.4781 36.2579 10.1727 36.0573 10.0206C35.825 9.84444 35.5061 9.93823 35.3694 10.132C35.1959 10.3778 35.2277 10.7392 35.2879 11.0368C35.348 11.3341 35.4703 11.6688 35.6792 11.9201C35.6623 11.9666 35.6863 12.0291 35.7547 12.0331C36.0953 12.0526 36.4273 12.0168 36.7391 11.9169C37.0288 11.8241 37.4236 11.6672 37.5333 11.3768Z" fill="#9B2C87"/>
<path d="M41.2881 12.0047C41.3914 11.7313 41.1777 11.4964 40.9 11.3956C40.6301 11.2975 40.3475 11.288 40.0855 11.3448C40.069 11.106 40.0128 10.8006 39.8122 10.6485C39.5799 10.4724 39.261 10.5662 39.1242 10.7599C38.9508 11.0057 38.9826 11.3672 39.0428 11.6648C39.1029 11.962 39.2252 12.2967 39.4341 12.5481C39.4172 12.5946 39.4412 12.6571 39.5096 12.661C39.8502 12.6806 40.1822 12.6448 40.494 12.5449C40.7837 12.452 41.1785 12.2951 41.2881 12.0047Z" fill="#764095"/>
<path d="M44.419 12.0047C44.5222 11.7313 44.3085 11.4964 44.0309 11.3956C43.761 11.2975 43.4783 11.288 43.2164 11.3448C43.1999 11.106 43.1437 10.8006 42.943 10.6485C42.7107 10.4724 42.3918 10.5662 42.2551 10.7599C42.0817 11.0057 42.1134 11.3672 42.1736 11.6648C42.2337 11.962 42.356 12.2967 42.565 12.5481C42.548 12.5946 42.572 12.6571 42.6405 12.661C42.9811 12.6806 43.3131 12.6448 43.6249 12.5449C43.9146 12.452 44.3094 12.2951 44.419 12.0047Z" fill="#410B72"/>
<path d="M44.9864 15.6567C45.1772 15.4349 45.0569 15.1414 44.8306 14.9519C44.6106 14.7678 44.3483 14.6625 44.0827 14.6266C44.1491 14.3966 44.201 14.0904 44.0647 13.8791C43.9068 13.6344 43.5749 13.6138 43.38 13.7493C43.1327 13.9211 43.0386 14.2716 42.993 14.5718C42.9475 14.8716 42.9477 15.2278 43.0578 15.5352C43.0259 15.5732 43.027 15.6401 43.09 15.6671C43.4034 15.8016 43.7276 15.8812 44.0549 15.8935C44.359 15.9051 44.7838 15.8922 44.9864 15.6567Z" fill="#9B2C87"/>
<path d="M48.1182 20.0224C48.3091 19.8006 48.1888 19.5071 47.9625 19.3177C47.7425 19.1335 47.4802 19.0282 47.2145 18.9923C47.2809 18.7623 47.3328 18.4562 47.1965 18.2448C47.0386 18.0001 46.7068 17.9795 46.5118 18.115C46.2645 18.2868 46.1704 18.6373 46.1249 18.9375C46.0794 19.2373 46.0795 19.5935 46.1896 19.901C46.1577 19.9389 46.1588 20.0058 46.2218 20.0328C46.5352 20.1673 46.8594 20.2469 47.1867 20.2593C47.4908 20.2708 47.9156 20.2579 48.1182 20.0224Z" fill="#410B72"/>
<path d="M45.474 27.3313C45.7185 27.4951 46.0008 27.3461 46.1666 27.104C46.3278 26.8686 46.4048 26.6001 46.4116 26.3356C46.6506 26.3765 46.9647 26.3951 47.1625 26.239C47.3915 26.0582 47.3756 25.7304 47.2176 25.5534C47.0172 25.3288 46.6539 25.2735 46.3465 25.2605C46.0395 25.2475 45.6808 25.2853 45.3833 25.4258C45.3416 25.3985 45.2743 25.4067 45.2541 25.4713C45.1532 25.7931 45.1089 26.1196 45.1326 26.4421C45.1546 26.7418 45.2145 27.1573 45.474 27.3313Z" fill="#764095"/>
<path d="M26.6089 18.7255C24.3113 21.082 24.4433 32.2971 24.8119 37.9231C24.8241 38.1089 24.9784 38.2489 25.1645 38.2489H28.7195C28.9528 38.2489 29.1206 38.0201 29.0611 37.7944C26.4031 27.7055 28.4757 26.6685 34.6845 26.1461C39.0651 25.7776 40.0096 25.0266 39.9294 24.5656C39.9069 24.4363 39.7511 24.4013 39.624 24.4341C36.3587 25.2775 34.831 24.7901 35.9269 24.556C39.6786 23.7546 40.5503 22.7427 40.3798 22.3664C40.3396 22.2778 40.2197 22.2779 40.1274 22.3087C34.446 24.2084 34.3953 23.738 35.1043 23.2472C35.1199 23.2365 35.1376 23.2266 35.1548 23.2186C40.4867 20.7368 40.1909 19.0798 39.2104 19.6089C33.4688 22.7077 32.5971 22.5914 32.8846 22.1203C32.9002 22.0948 32.9221 22.0719 32.9449 22.0526C37.6095 18.1001 36.9013 16.6952 36.1931 17.3121C35.4832 17.9304 29.2711 23.4959 28.2062 21.7291C27.1413 19.9623 29.4486 18.8139 30.0698 17.2237C30.691 15.6336 29.6261 15.3686 29.5374 15.4569C29.4486 15.5453 29.5374 15.722 26.6089 18.7255Z" stroke="#558E1D" stroke-width="0.531674"/>
<path d="M21.5318 18.7255C23.8294 21.082 23.6973 32.2971 23.3287 37.9231C23.3165 38.1089 23.1623 38.2489 22.9761 38.2489H19.4212C19.1878 38.2489 19.0201 38.0201 19.0795 37.7944C21.7375 27.7055 19.6649 26.6685 13.4561 26.1461C9.07552 25.7776 8.13104 25.0266 8.21122 24.5656C8.23371 24.4363 8.38951 24.4013 8.51658 24.4341C11.7819 25.2775 13.3096 24.7901 12.2137 24.556C8.46199 23.7546 7.59035 22.7427 7.76084 22.3664C7.80098 22.2778 7.92095 22.2779 8.01322 22.3087C13.6947 24.2084 13.7453 23.738 13.0363 23.2472C13.0207 23.2365 13.0031 23.2266 12.9859 23.2186C7.65393 20.7368 7.94973 19.0798 8.9302 19.6089C14.6718 22.7077 15.5435 22.5914 15.256 22.1203C15.2405 22.0948 15.2185 22.0719 15.1958 22.0526C10.5311 18.1001 11.2393 16.6952 11.9475 17.3121C12.6574 17.9304 18.8695 23.4959 19.9344 21.7291C20.9994 19.9623 18.692 18.8139 18.0708 17.2237C17.4496 15.6336 18.5145 15.3686 18.6033 15.4569C18.692 15.5453 18.6032 15.722 21.5318 18.7255Z" stroke="#558E1D" stroke-width="0.531674"/>
<path d="M55.0698 27.7212V13.6839H56.805V20.2736L62.9463 13.6839H65.1299L58.7546 20.4978L65.627 27.7212H63.385L56.805 20.8585V27.7212H55.0698ZM67.1834 27.7212V13.6839H68.9186V27.7212H67.1834ZM71.8435 27.7212V13.6839H73.5981L80.919 24.6505V13.6839H82.6736V27.7212H80.919L73.5981 16.7448V27.7212H71.8435ZM85.3995 27.7212V13.6839H89.7276C89.8706 13.6839 90.1208 13.6871 90.4782 13.6936C90.8357 13.7001 91.1769 13.7261 91.5018 13.7716C92.5871 13.9146 93.4937 14.311 94.2215 14.9609C94.9559 15.6043 95.5083 16.4231 95.8787 17.4174C96.2491 18.4117 96.4344 19.5068 96.4344 20.7025C96.4344 21.8983 96.2491 22.9933 95.8787 23.9877C95.5083 24.982 94.9559 25.8041 94.2215 26.4539C93.4937 27.0973 92.5871 27.4905 91.5018 27.6335C91.1769 27.6725 90.8324 27.6984 90.4685 27.7114C90.1111 27.7179 89.8641 27.7212 89.7276 27.7212H85.3995ZM87.1834 26.064H89.7276C89.9746 26.064 90.2508 26.0575 90.5562 26.0445C90.8617 26.025 91.1281 25.9958 91.3556 25.9568C92.1224 25.8138 92.7431 25.4921 93.2175 24.9917C93.6919 24.4913 94.0396 23.8674 94.2605 23.1201C94.4815 22.3727 94.592 21.5669 94.592 20.7025C94.592 19.8187 94.4782 19.0031 94.2508 18.2558C94.0298 17.5084 93.6821 16.8878 93.2077 16.3939C92.7333 15.9 92.1159 15.5848 91.3556 15.4483C91.1281 15.4028 90.8584 15.3736 90.5465 15.3606C90.2345 15.3476 89.9616 15.3411 89.7276 15.3411H87.1834V26.064ZM102.573 27.7212V13.6839H104.308V19.8739H111.697V13.6839H113.432V27.7212H111.697V21.5214H104.308V27.7212H102.573ZM116.167 27.7212V13.6839H125.038V15.3313H117.902V19.7277H123.868V21.3752H117.902V26.0738H125.038V27.7212H116.167ZM126.406 27.7212L131.105 13.6839H133.523L138.221 27.7212H136.418L132.021 14.6977H132.567L128.21 27.7212H126.406ZM128.668 24.4361V22.8081H135.96V24.4361H128.668ZM139.966 27.7212V13.6839H145.513C145.649 13.6839 145.812 13.6904 146 13.7034C146.189 13.7099 146.371 13.7294 146.546 13.7619C147.307 13.8788 147.943 14.1388 148.457 14.5417C148.977 14.9446 149.367 15.4548 149.627 16.0722C149.887 16.6831 150.017 17.3622 150.017 18.1095C150.017 19.1948 149.734 20.1371 149.168 20.9365C148.603 21.7293 147.774 22.2265 146.683 22.428L146.02 22.5352H141.701V27.7212H139.966ZM148.32 27.7212L145.552 22.0088L147.268 21.4824L150.309 27.7212H148.32ZM141.701 20.8877H145.454C145.578 20.8877 145.718 20.8812 145.874 20.8683C146.036 20.8553 146.189 20.8325 146.332 20.8C146.78 20.696 147.144 20.5076 147.424 20.2346C147.709 19.9552 147.917 19.6302 148.047 19.2598C148.177 18.8829 148.242 18.4995 148.242 18.1095C148.242 17.7196 148.177 17.3394 148.047 16.969C147.917 16.5921 147.709 16.2639 147.424 15.9844C147.144 15.705 146.78 15.5165 146.332 15.419C146.189 15.3801 146.036 15.3573 145.874 15.3508C145.718 15.3378 145.578 15.3313 145.454 15.3313H141.701V20.8877ZM156.073 27.7212V15.3313H151.286V13.6839H162.594V15.3313H157.808V27.7212H156.073ZM169.127 28.0136C168.133 28.0136 167.236 27.8447 166.437 27.5067C165.644 27.1688 164.988 26.6879 164.468 26.064C163.954 25.4336 163.62 24.6895 163.464 23.8317L165.257 23.549C165.485 24.4328 165.956 25.1249 166.671 25.6253C167.392 26.1192 168.24 26.3662 169.215 26.3662C169.846 26.3662 170.414 26.2687 170.921 26.0738C171.434 25.8723 171.841 25.5863 172.14 25.2159C172.439 24.8455 172.588 24.4068 172.588 23.8999C172.588 23.588 172.533 23.3215 172.422 23.1006C172.318 22.8731 172.172 22.6814 171.984 22.5254C171.802 22.363 171.594 22.2265 171.36 22.116C171.126 22.0055 170.882 21.9146 170.629 21.8431L167.051 20.7805C166.661 20.6635 166.284 20.5173 165.92 20.3419C165.556 20.1599 165.231 19.9357 164.945 19.6692C164.66 19.3963 164.432 19.0713 164.263 18.6944C164.094 18.311 164.01 17.8593 164.01 17.3394C164.01 16.5076 164.224 15.7992 164.653 15.2143C165.088 14.6229 165.677 14.1713 166.417 13.8593C167.158 13.5474 167.993 13.3947 168.923 13.4012C169.865 13.4077 170.707 13.5766 171.447 13.9081C172.195 14.233 172.812 14.7009 173.3 15.3118C173.794 15.9227 174.125 16.6538 174.294 17.5051L172.452 17.8268C172.354 17.2549 172.136 16.7643 171.798 16.3549C171.467 15.9389 171.051 15.6205 170.551 15.3995C170.05 15.1721 169.501 15.0551 168.903 15.0486C168.331 15.0421 167.815 15.1331 167.353 15.3216C166.892 15.51 166.525 15.7732 166.252 16.1112C165.979 16.4426 165.842 16.826 165.842 17.2614C165.842 17.6904 165.966 18.038 166.213 18.3045C166.46 18.5644 166.762 18.7724 167.119 18.9284C167.483 19.0778 167.837 19.2013 168.182 19.2988L170.853 20.0689C171.158 20.1534 171.509 20.2704 171.906 20.4198C172.309 20.5693 172.698 20.7805 173.075 21.0535C173.452 21.3199 173.764 21.6773 174.011 22.1258C174.258 22.5677 174.382 23.1266 174.382 23.8024C174.382 24.4783 174.245 25.0794 173.972 25.6058C173.706 26.1322 173.332 26.5742 172.851 26.9316C172.37 27.2825 171.811 27.549 171.175 27.7309C170.538 27.9194 169.855 28.0136 169.127 28.0136Z" fill="#447713"/>
<path d="M55.084 38.6624V31.7812H55.6336V35.0498L58.9069 31.7812H59.6332L56.3408 35.088L59.9199 38.6624H59.184L55.6336 35.1453V38.6624H55.084ZM60.6862 38.6624V31.7812H61.2357V38.6624H60.6862ZM62.6719 38.6624V31.7812H63.2262L67.2115 37.6827V31.7812H67.7658V38.6624H67.2115L63.2262 32.7513V38.6624H62.6719ZM69.1024 38.6624V31.7812H71.1524C71.232 31.7812 71.3611 31.7828 71.5395 31.786C71.721 31.7892 71.8931 31.8035 72.0555 31.829C72.5716 31.8991 73.0001 32.0934 73.341 32.412C73.6818 32.7274 73.9367 33.1288 74.1055 33.6162C74.2744 34.1004 74.3588 34.6356 74.3588 35.2218C74.3588 35.8111 74.2744 36.3495 74.1055 36.8369C73.9367 37.3212 73.6818 37.721 73.341 38.0364C73.0001 38.3517 72.5716 38.5445 72.0555 38.6146C71.8931 38.6369 71.7195 38.6512 71.5347 38.6576C71.3531 38.6608 71.2257 38.6624 71.1524 38.6624H69.1024ZM69.6806 38.1224H71.1524C71.2958 38.1224 71.4439 38.1192 71.5968 38.1128C71.7497 38.1033 71.8803 38.0889 71.9886 38.0698C72.4155 37.9934 72.7596 37.8245 73.0208 37.5633C73.282 37.2989 73.4716 36.966 73.5895 36.5646C73.7105 36.16 73.771 35.7124 73.771 35.2218C73.771 34.728 73.7105 34.2804 73.5895 33.879C73.4684 33.4744 73.2773 33.1415 73.016 32.8803C72.7548 32.6159 72.4123 32.447 71.9886 32.3738C71.8803 32.3547 71.7465 32.3419 71.5872 32.3355C71.4311 32.326 71.2862 32.3212 71.1524 32.3212H69.6806V38.1224ZM75.4209 38.6624V31.7812H75.9752L79.9606 37.6827V31.7812H80.5149V38.6624H79.9606L75.9752 32.7513V38.6624H75.4209ZM81.8514 38.6624V31.7812H86.1044V32.3164H82.401V34.9303H85.5309V35.4655H82.401V38.1272H86.1044V38.6624H81.8514ZM89.2747 38.8057C88.8032 38.8057 88.3779 38.7277 87.9988 38.5716C87.6229 38.4155 87.3107 38.1941 87.0622 37.9073C86.8169 37.6206 86.6529 37.2798 86.57 36.8847L87.1339 36.7892C87.2518 37.2479 87.5035 37.6095 87.8889 37.8739C88.2776 38.1383 88.7443 38.2705 89.289 38.2705C89.6586 38.2705 89.9851 38.2116 90.2687 38.0937C90.5522 37.9758 90.7736 37.8102 90.9329 37.5967C91.0922 37.3801 91.1718 37.1284 91.1718 36.8417C91.1718 36.6347 91.1336 36.461 91.0571 36.3209C90.9838 36.1807 90.8883 36.066 90.7704 35.9768C90.6525 35.8844 90.5267 35.8111 90.3929 35.757C90.2591 35.6996 90.1333 35.6535 90.0154 35.6184L88.2856 35.1023C88.0562 35.0354 87.8507 34.9526 87.6691 34.8538C87.4907 34.7519 87.3394 34.6356 87.2152 34.505C87.0941 34.3712 87.0001 34.2199 86.9332 34.051C86.8695 33.8822 86.8376 33.6942 86.8376 33.4872C86.8376 33.1176 86.9364 32.7943 87.1339 32.5171C87.3314 32.24 87.6022 32.0249 87.9463 31.872C88.2935 31.7159 88.6917 31.6379 89.1409 31.6379C89.5933 31.6411 89.9995 31.7255 90.3594 31.8911C90.7194 32.0536 91.0141 32.2846 91.2435 32.584C91.476 32.8835 91.6258 33.2387 91.6927 33.6496L91.124 33.75C91.0794 33.4346 90.9647 33.159 90.78 32.9233C90.5984 32.6876 90.3658 32.5044 90.0823 32.3738C89.7988 32.2432 89.4834 32.1778 89.1361 32.1778C88.8016 32.1747 88.5054 32.2304 88.2473 32.3451C87.9925 32.4598 87.7918 32.6143 87.6452 32.8086C87.4987 33.0029 87.4254 33.2228 87.4254 33.4681C87.4254 33.7229 87.4939 33.9268 87.6309 34.0797C87.7711 34.2294 87.9415 34.3473 88.1422 34.4333C88.3461 34.5193 88.5404 34.5894 88.7252 34.6436L90.111 35.0545C90.2416 35.0928 90.3977 35.1469 90.5793 35.217C90.7608 35.2871 90.9392 35.3874 91.1145 35.5181C91.2897 35.6455 91.4346 35.8159 91.5493 36.0294C91.6672 36.2396 91.7261 36.504 91.7261 36.8226C91.7261 37.1316 91.6672 37.4088 91.5493 37.6541C91.4314 37.8994 91.2626 38.108 91.0428 38.2801C90.823 38.4489 90.5633 38.5779 90.2639 38.6671C89.9644 38.7595 89.6347 38.8057 89.2747 38.8057ZM95.1732 38.8057C94.7018 38.8057 94.2765 38.7277 93.8974 38.5716C93.5215 38.4155 93.2093 38.1941 92.9608 37.9073C92.7155 37.6206 92.5514 37.2798 92.4686 36.8847L93.0325 36.7892C93.1503 37.2479 93.402 37.6095 93.7875 37.8739C94.1761 38.1383 94.6428 38.2705 95.1876 38.2705C95.5571 38.2705 95.8837 38.2116 96.1672 38.0937C96.4507 37.9758 96.6721 37.8102 96.8314 37.5967C96.9907 37.3801 97.0703 37.1284 97.0703 36.8417C97.0703 36.6347 97.0321 36.461 96.9557 36.3209C96.8824 36.1807 96.7868 36.066 96.6689 35.9768C96.5511 35.8844 96.4252 35.8111 96.2914 35.757C96.1576 35.6996 96.0318 35.6535 95.9139 35.6184L94.1841 35.1023C93.9547 35.0354 93.7492 34.9526 93.5677 34.8538C93.3893 34.7519 93.2379 34.6356 93.1137 34.505C92.9926 34.3712 92.8987 34.2199 92.8318 34.051C92.768 33.8822 92.7362 33.6942 92.7362 33.4872C92.7362 33.1176 92.8349 32.7943 93.0325 32.5171C93.23 32.24 93.5008 32.0249 93.8448 31.872C94.1921 31.7159 94.5903 31.6379 95.0394 31.6379C95.4918 31.6411 95.898 31.7255 96.258 31.8911C96.618 32.0536 96.9126 32.2846 97.142 32.584C97.3746 32.8835 97.5243 33.2387 97.5912 33.6496L97.0226 33.75C96.978 33.4346 96.8633 33.159 96.6785 32.9233C96.4969 32.6876 96.2644 32.5044 95.9808 32.3738C95.6973 32.2432 95.3819 32.1778 95.0347 32.1778C94.7002 32.1747 94.4039 32.2304 94.1459 32.3451C93.891 32.4598 93.6903 32.6143 93.5438 32.8086C93.3972 33.0029 93.3239 33.2228 93.3239 33.4681C93.3239 33.7229 93.3924 33.9268 93.5294 34.0797C93.6696 34.2294 93.84 34.3473 94.0407 34.4333C94.2446 34.5193 94.4389 34.5894 94.6237 34.6436L96.0095 35.0545C96.1401 35.0928 96.2962 35.1469 96.4778 35.217C96.6594 35.2871 96.8378 35.3874 97.013 35.5181C97.1882 35.6455 97.3332 35.8159 97.4478 36.0294C97.5657 36.2396 97.6247 36.504 97.6247 36.8226C97.6247 37.1316 97.5657 37.4088 97.4478 37.6541C97.33 37.8994 97.1611 38.108 96.9413 38.2801C96.7215 38.4489 96.4619 38.5779 96.1624 38.6671C95.863 38.7595 95.5332 38.8057 95.1732 38.8057ZM100.604 38.6624V31.7812H101.153V38.6624H100.604ZM104.926 38.8057C104.455 38.8057 104.03 38.7277 103.65 38.5716C103.275 38.4155 102.962 38.1941 102.714 37.9073C102.469 37.6206 102.305 37.2798 102.222 36.8847L102.786 36.7892C102.903 37.2479 103.155 37.6095 103.541 37.8739C103.929 38.1383 104.396 38.2705 104.941 38.2705C105.31 38.2705 105.637 38.2116 105.92 38.0937C106.204 37.9758 106.425 37.8102 106.585 37.5967C106.744 37.3801 106.823 37.1284 106.823 36.8417C106.823 36.6347 106.785 36.461 106.709 36.3209C106.635 36.1807 106.54 36.066 106.422 35.9768C106.304 35.8844 106.178 35.8111 106.045 35.757C105.911 35.6996 105.785 35.6535 105.667 35.6184L103.937 35.1023C103.708 35.0354 103.502 34.9526 103.321 34.8538C103.142 34.7519 102.991 34.6356 102.867 34.505C102.746 34.3712 102.652 34.2199 102.585 34.051C102.521 33.8822 102.489 33.6942 102.489 33.4872C102.489 33.1176 102.588 32.7943 102.786 32.5171C102.983 32.24 103.254 32.0249 103.598 31.872C103.945 31.7159 104.343 31.6379 104.793 31.6379C105.245 31.6411 105.651 31.7255 106.011 31.8911C106.371 32.0536 106.666 32.2846 106.895 32.584C107.128 32.8835 107.277 33.2387 107.344 33.6496L106.776 33.75C106.731 33.4346 106.616 33.159 106.432 32.9233C106.25 32.6876 106.017 32.5044 105.734 32.3738C105.45 32.2432 105.135 32.1778 104.788 32.1778C104.453 32.1747 104.157 32.2304 103.899 32.3451C103.644 32.4598 103.443 32.6143 103.297 32.8086C103.15 33.0029 103.077 33.2228 103.077 33.4681C103.077 33.7229 103.146 33.9268 103.283 34.0797C103.423 34.2294 103.593 34.3473 103.794 34.4333C103.998 34.5193 104.192 34.5894 104.377 34.6436L105.763 35.0545C105.893 35.0928 106.049 35.1469 106.231 35.217C106.412 35.2871 106.591 35.3874 106.766 35.5181C106.941 35.6455 107.086 35.8159 107.201 36.0294C107.319 36.2396 107.378 36.504 107.378 36.8226C107.378 37.1316 107.319 37.4088 107.201 37.6541C107.083 37.8994 106.914 38.108 106.694 38.2801C106.475 38.4489 106.215 38.5779 105.916 38.6671C105.616 38.7595 105.286 38.8057 104.926 38.8057ZM110.261 38.6624V31.7812H112.856C112.923 31.7812 112.995 31.7844 113.071 31.7908C113.151 31.794 113.234 31.8035 113.32 31.8195C113.664 31.8736 113.958 31.9979 114.204 32.1922C114.452 32.3833 114.642 32.6254 114.772 32.9185C114.903 33.2084 114.968 33.5286 114.968 33.879C114.968 34.2326 114.903 34.556 114.772 34.8491C114.642 35.139 114.452 35.3811 114.204 35.5754C113.958 35.7665 113.664 35.8892 113.32 35.9434C113.234 35.9561 113.151 35.9657 113.071 35.972C112.995 35.9784 112.923 35.9816 112.856 35.9816H110.811V38.6624H110.261ZM110.811 35.4416H112.847C112.904 35.4416 112.969 35.4384 113.043 35.432C113.119 35.4257 113.196 35.4161 113.272 35.4034C113.52 35.3524 113.728 35.2521 113.893 35.1023C114.059 34.9494 114.183 34.7662 114.266 34.5528C114.349 34.3393 114.39 34.1148 114.39 33.879C114.39 33.6433 114.349 33.4203 114.266 33.21C114.183 32.9966 114.059 32.815 113.893 32.6653C113.728 32.5123 113.52 32.4104 113.272 32.3594C113.196 32.3435 113.119 32.3324 113.043 32.326C112.969 32.3196 112.904 32.3164 112.847 32.3164H110.811V35.4416ZM115.927 38.6624V31.7812H118.521C118.588 31.7812 118.66 31.7844 118.736 31.7908C118.816 31.794 118.899 31.8035 118.985 31.8195C119.329 31.8736 119.624 31.9979 119.869 32.1922C120.117 32.3833 120.307 32.6254 120.438 32.9185C120.568 33.2084 120.634 33.5286 120.634 33.879C120.634 34.3855 120.498 34.8268 120.227 35.2027C119.957 35.5786 119.579 35.8175 119.095 35.9195L118.937 35.9816H116.476V38.6624H115.927ZM120.165 38.6624L118.808 35.8621L119.319 35.6041L120.81 38.6624H120.165ZM116.476 35.4416H118.512C118.569 35.4416 118.635 35.4384 118.708 35.432C118.784 35.4257 118.861 35.4161 118.937 35.4034C119.186 35.3524 119.393 35.2521 119.558 35.1023C119.724 34.9494 119.848 34.7662 119.931 34.5528C120.014 34.3393 120.055 34.1148 120.055 33.879C120.055 33.6433 120.014 33.4203 119.931 33.21C119.848 32.9966 119.724 32.815 119.558 32.6653C119.393 32.5123 119.186 32.4104 118.937 32.3594C118.861 32.3435 118.784 32.3324 118.708 32.326C118.635 32.3196 118.569 32.3164 118.512 32.3164H116.476V35.4416ZM124.61 38.8057C123.925 38.8057 123.35 38.6544 122.885 38.3517C122.42 38.0459 122.07 37.6238 121.834 37.0854C121.598 36.547 121.48 35.9258 121.48 35.2218C121.48 34.5177 121.598 33.8965 121.834 33.3582C122.07 32.8198 122.42 32.3993 122.885 32.0966C123.35 31.7908 123.925 31.6379 124.61 31.6379C125.295 31.6379 125.869 31.7908 126.331 32.0966C126.796 32.3993 127.146 32.8198 127.382 33.3582C127.618 33.8965 127.735 34.5177 127.735 35.2218C127.735 35.9258 127.618 36.547 127.382 37.0854C127.146 37.6238 126.796 38.0459 126.331 38.3517C125.869 38.6544 125.295 38.8057 124.61 38.8057ZM124.61 38.2657C125.174 38.2689 125.644 38.1415 126.02 37.8834C126.396 37.6222 126.678 37.2622 126.866 36.8035C127.054 36.3448 127.148 35.8175 127.148 35.2218C127.148 34.6261 127.054 34.0988 126.866 33.6401C126.678 33.1813 126.396 32.823 126.02 32.5649C125.644 32.3069 125.174 32.1778 124.61 32.1778C124.046 32.1747 123.576 32.3021 123.201 32.5601C122.828 32.8182 122.547 33.1782 122.36 33.6401C122.172 34.0988 122.074 34.6261 122.068 35.2218C122.062 35.8175 122.152 36.3448 122.34 36.8035C122.532 37.259 122.817 37.6174 123.196 37.8787C123.575 38.1367 124.046 38.2657 124.61 38.2657ZM131.442 38.8057C130.757 38.8057 130.182 38.6544 129.717 38.3517C129.252 38.0459 128.901 37.6238 128.666 37.0854C128.43 36.547 128.312 35.9258 128.312 35.2218C128.312 34.5177 128.43 33.8965 128.666 33.3582C128.901 32.8198 129.252 32.3993 129.717 32.0966C130.182 31.7908 130.757 31.6379 131.442 31.6379C132.127 31.6379 132.7 31.7908 133.162 32.0966C133.627 32.3993 133.978 32.8198 134.214 33.3582C134.449 33.8965 134.567 34.5177 134.567 35.2218C134.567 35.9258 134.449 36.547 134.214 37.0854C133.978 37.6238 133.627 38.0459 133.162 38.3517C132.7 38.6544 132.127 38.8057 131.442 38.8057ZM131.442 38.2657C132.006 38.2689 132.476 38.1415 132.852 37.8834C133.228 37.6222 133.51 37.2622 133.698 36.8035C133.886 36.3448 133.979 35.8175 133.979 35.2218C133.979 34.6261 133.886 34.0988 133.698 33.6401C133.51 33.1813 133.228 32.823 132.852 32.5649C132.476 32.3069 132.006 32.1778 131.442 32.1778C130.878 32.1747 130.408 32.3021 130.032 32.5601C129.66 32.8182 129.379 33.1782 129.191 33.6401C129.003 34.0988 128.906 34.6261 128.9 35.2218C128.894 35.8175 128.984 36.3448 129.172 36.8035C129.363 37.259 129.649 37.6174 130.028 37.8787C130.407 38.1367 130.878 38.2657 131.442 38.2657ZM135.526 38.6624V31.7812H139.411V32.3308H136.076V34.9446H138.838V35.4989H136.076V38.6624H135.526ZM144.928 38.8057C144.244 38.8057 143.668 38.6544 143.203 38.3517C142.738 38.0459 142.388 37.6238 142.152 37.0854C141.916 36.547 141.798 35.9258 141.798 35.2218C141.798 34.5177 141.916 33.8965 142.152 33.3582C142.388 32.8198 142.738 32.3993 143.203 32.0966C143.668 31.7908 144.244 31.6379 144.928 31.6379C145.613 31.6379 146.187 31.7908 146.649 32.0966C147.114 32.3993 147.464 32.8198 147.7 33.3582C147.936 33.8965 148.054 34.5177 148.054 35.2218C148.054 35.9258 147.936 36.547 147.7 37.0854C147.464 37.6238 147.114 38.0459 146.649 38.3517C146.187 38.6544 145.613 38.8057 144.928 38.8057ZM144.928 38.2657C145.492 38.2689 145.962 38.1415 146.338 37.8834C146.714 37.6222 146.996 37.2622 147.184 36.8035C147.372 36.3448 147.466 35.8175 147.466 35.2218C147.466 34.6261 147.372 34.0988 147.184 33.6401C146.996 33.1813 146.714 32.823 146.338 32.5649C145.962 32.3069 145.492 32.1778 144.928 32.1778C144.365 32.1747 143.895 32.3021 143.519 32.5601C143.146 32.8182 142.866 33.1782 142.678 33.6401C142.49 34.0988 142.393 34.6261 142.386 35.2218C142.38 35.8175 142.471 36.3448 142.659 36.8035C142.85 37.259 143.135 37.6174 143.514 37.8787C143.893 38.1367 144.365 38.2657 144.928 38.2657ZM149.013 38.6624V31.7812H152.898V32.3308H149.562V34.9446H152.324V35.4989H149.562V38.6624H149.013ZM158.4 38.8057C157.9 38.8057 157.456 38.7197 157.067 38.5477C156.682 38.3756 156.357 38.1319 156.092 37.8165C155.828 37.5012 155.627 37.1237 155.49 36.684C155.353 36.2444 155.285 35.757 155.285 35.2218C155.285 34.5114 155.404 33.8886 155.643 33.3534C155.885 32.815 156.237 32.3961 156.699 32.0966C157.161 31.7972 157.728 31.6474 158.4 31.6474C159.095 31.6474 159.665 31.8099 160.111 32.1348C160.56 32.4598 160.876 32.8867 161.057 33.4155L160.513 33.5827C160.353 33.159 160.094 32.8214 159.734 32.5697C159.377 32.3148 158.937 32.1858 158.415 32.1826C157.851 32.1826 157.381 32.3116 157.005 32.5697C156.632 32.8245 156.352 33.1813 156.164 33.6401C155.976 34.0988 155.879 34.6261 155.873 35.2218C155.866 35.8175 155.957 36.3448 156.145 36.8035C156.336 37.259 156.621 37.6174 157 37.8787C157.379 38.1367 157.851 38.2657 158.415 38.2657C158.953 38.2689 159.393 38.1638 159.734 37.9503C160.078 37.7369 160.333 37.4374 160.498 37.052C160.667 36.6633 160.758 36.2094 160.771 35.6901H159.06V35.1883H161.344C161.354 35.268 161.358 35.346 161.358 35.4225C161.362 35.4989 161.363 35.5579 161.363 35.5993C161.363 36.2078 161.256 36.7541 161.043 37.2383C160.833 37.7226 160.508 38.1049 160.068 38.3852C159.632 38.6655 159.076 38.8057 158.4 38.8057ZM165.069 38.8057C164.384 38.8057 163.809 38.6544 163.344 38.3517C162.879 38.0459 162.529 37.6238 162.293 37.0854C162.057 36.547 161.939 35.9258 161.939 35.2218C161.939 34.5177 162.057 33.8965 162.293 33.3582C162.529 32.8198 162.879 32.3993 163.344 32.0966C163.809 31.7908 164.384 31.6379 165.069 31.6379C165.754 31.6379 166.328 31.7908 166.79 32.0966C167.255 32.3993 167.605 32.8198 167.841 33.3582C168.077 33.8965 168.195 34.5177 168.195 35.2218C168.195 35.9258 168.077 36.547 167.841 37.0854C167.605 37.6238 167.255 38.0459 166.79 38.3517C166.328 38.6544 165.754 38.8057 165.069 38.8057ZM165.069 38.2657C165.633 38.2689 166.103 38.1415 166.479 37.8834C166.855 37.6222 167.137 37.2622 167.325 36.8035C167.513 36.3448 167.607 35.8175 167.607 35.2218C167.607 34.6261 167.513 34.0988 167.325 33.6401C167.137 33.1813 166.855 32.823 166.479 32.5649C166.103 32.3069 165.633 32.1778 165.069 32.1778C164.505 32.1747 164.036 32.3021 163.66 32.5601C163.287 32.8182 163.007 33.1782 162.819 33.6401C162.631 34.0988 162.534 34.6261 162.527 35.2218C162.521 35.8175 162.612 36.3448 162.8 36.8035C162.991 37.259 163.276 37.6174 163.655 37.8787C164.034 38.1367 164.505 38.2657 165.069 38.2657ZM169.154 38.6624V31.7812H171.204C171.283 31.7812 171.412 31.7828 171.591 31.786C171.772 31.7892 171.944 31.8035 172.107 31.829C172.623 31.8991 173.051 32.0934 173.392 32.412C173.733 32.7274 173.988 33.1288 174.157 33.6162C174.325 34.1004 174.41 34.6356 174.41 35.2218C174.41 35.8111 174.325 36.3495 174.157 36.8369C173.988 37.3212 173.733 37.721 173.392 38.0364C173.051 38.3517 172.623 38.5445 172.107 38.6146C171.944 38.6369 171.771 38.6512 171.586 38.6576C171.404 38.6608 171.277 38.6624 171.204 38.6624H169.154ZM169.732 38.1224H171.204C171.347 38.1224 171.495 38.1192 171.648 38.1128C171.801 38.1033 171.931 38.0889 172.04 38.0698C172.467 37.9934 172.811 37.8245 173.072 37.5633C173.333 37.2989 173.523 36.966 173.641 36.5646C173.762 36.16 173.822 35.7124 173.822 35.2218C173.822 34.728 173.762 34.2804 173.641 33.879C173.52 33.4744 173.328 33.1415 173.067 32.8803C172.806 32.6159 172.463 32.447 172.04 32.3738C171.931 32.3547 171.798 32.3419 171.638 32.3355C171.482 32.326 171.337 32.3212 171.204 32.3212H169.732V38.1224Z" fill="#400B72"/>
</g>
<defs>
<clipPath id="clip0_498_554">
<rect width="176" height="40" fill="white"/>
</clipPath>
</defs>
</svg>
