<svg width="117" height="81" viewBox="0 0 117 81" fill="none" xmlns="http://www.w3.org/2000/svg">
<path d="M1.31261 68.5996V55.0985H2.9815V61.4365L8.88825 55.0985H10.9884L4.85666 61.6521L11.4666 68.5996H9.31016L2.9815 61.9991V68.5996H1.31261ZM12.9635 68.5996V55.0985H14.6324V68.5996H12.9635ZM17.4456 68.5996V55.0985H19.1332L26.1744 65.6462V55.0985H27.8621V68.5996H26.1744L19.1332 58.0425V68.5996H17.4456ZM30.4838 68.5996V55.0985H34.6466C34.7841 55.0985 35.0248 55.1016 35.3686 55.1078C35.7123 55.1141 36.0405 55.1391 36.353 55.1828C37.3969 55.3204 38.2688 55.7016 38.9689 56.3267C39.6752 56.9455 40.2065 57.7331 40.5628 58.6894C40.919 59.6457 41.0972 60.6989 41.0972 61.849C41.0972 62.9991 40.919 64.0523 40.5628 65.0087C40.2065 65.965 39.6752 66.7557 38.9689 67.3808C38.2688 67.9996 37.3969 68.3777 36.353 68.5152C36.0405 68.5527 35.7092 68.5777 35.3592 68.5902C35.0154 68.5965 34.7779 68.5996 34.6466 68.5996H30.4838ZM32.1996 67.0057H34.6466C34.8842 67.0057 35.1498 66.9995 35.4436 66.987C35.7374 66.9682 35.9936 66.9401 36.2124 66.9026C36.95 66.7651 37.5469 66.4557 38.0032 65.9744C38.4595 65.4931 38.7939 64.893 39.0064 64.1742C39.2189 63.4554 39.3252 62.6804 39.3252 61.849C39.3252 60.999 39.2158 60.2145 38.997 59.4957C38.7845 58.7769 38.4501 58.18 37.9938 57.7049C37.5375 57.2299 36.9437 56.9267 36.2124 56.7955C35.9936 56.7517 35.7342 56.7236 35.4342 56.7111C35.1342 56.6986 34.8717 56.6924 34.6466 56.6924H32.1996V67.0057ZM47.0013 68.5996V55.0985H48.6702V61.0521H55.777V55.0985H57.4459V68.5996H55.777V62.6366H48.6702V68.5996H47.0013ZM60.0761 68.5996V55.0985H68.6081V56.683H61.745V60.9115H67.483V62.496H61.745V67.0151H68.6081V68.5996H60.0761ZM69.9244 68.5996L74.4435 55.0985H76.7687L81.2878 68.5996H79.5533L75.3248 56.0735H75.8499L71.6589 68.5996H69.9244ZM72.0996 65.44V63.8742H79.1126V65.44H72.0996ZM82.9663 68.5996V55.0985H88.3011C88.4323 55.0985 88.5886 55.1047 88.7699 55.1172C88.9511 55.1235 89.1261 55.1422 89.2949 55.1735C90.0262 55.286 90.6388 55.536 91.1326 55.9235C91.6326 56.3111 92.0076 56.8017 92.2577 57.3955C92.5077 57.9831 92.6327 58.6363 92.6327 59.3551C92.6327 60.3989 92.3608 61.3052 91.817 62.0741C91.2732 62.8366 90.4763 63.3148 89.4262 63.5086L88.7886 63.6117H84.6351V68.5996H82.9663ZM91.0013 68.5996L88.3386 63.1054L89.9887 62.5991L92.914 68.5996H91.0013ZM84.6351 62.0272H88.2448C88.3636 62.0272 88.498 62.0209 88.648 62.0084C88.8042 61.9959 88.9511 61.974 89.0886 61.9428C89.5199 61.8428 89.87 61.6615 90.1387 61.399C90.4138 61.1302 90.6138 60.8177 90.7388 60.4614C90.8638 60.0989 90.9263 59.7301 90.9263 59.3551C90.9263 58.98 90.8638 58.6144 90.7388 58.2581C90.6138 57.8956 90.4138 57.5799 90.1387 57.3112C89.87 57.0424 89.5199 56.8611 89.0886 56.7674C88.9511 56.7299 88.8042 56.708 88.648 56.7017C88.498 56.6892 88.3636 56.683 88.2448 56.683H84.6351V62.0272ZM98.4574 68.5996V56.683H93.8539V55.0985H104.73V56.683H100.126V68.5996H98.4574ZM111.014 68.8809C110.057 68.8809 109.195 68.7184 108.426 68.3933C107.663 68.0683 107.032 67.6058 106.532 67.0057C106.038 66.3994 105.716 65.6837 105.566 64.8587L107.291 64.5868C107.51 65.4368 107.963 66.1025 108.651 66.5838C109.345 67.0589 110.16 67.2964 111.098 67.2964C111.704 67.2964 112.251 67.2026 112.739 67.0151C113.233 66.8213 113.623 66.5463 113.911 66.19C114.198 65.8338 114.342 65.4118 114.342 64.9243C114.342 64.6243 114.289 64.368 114.183 64.1555C114.083 63.9367 113.942 63.7523 113.761 63.6023C113.586 63.446 113.386 63.3148 113.161 63.2085C112.936 63.1023 112.701 63.0148 112.458 62.946L109.017 61.924C108.642 61.8115 108.279 61.6709 107.929 61.5021C107.579 61.3271 107.266 61.1115 106.991 60.8552C106.716 60.5927 106.498 60.2802 106.335 59.9176C106.173 59.5488 106.091 59.1144 106.091 58.6144C106.091 57.8143 106.298 57.133 106.71 56.5705C107.129 56.0017 107.695 55.5673 108.407 55.2672C109.12 54.9672 109.923 54.8203 110.817 54.8266C111.723 54.8328 112.533 54.9953 113.245 55.3141C113.964 55.6266 114.558 56.0767 115.026 56.6642C115.502 57.2518 115.82 57.955 115.983 58.7738L114.211 59.0832C114.117 58.5331 113.908 58.0612 113.583 57.6674C113.264 57.2674 112.864 56.9611 112.383 56.7486C111.901 56.5298 111.373 56.4173 110.798 56.4111C110.248 56.4048 109.751 56.4923 109.307 56.6736C108.863 56.8549 108.51 57.108 108.248 57.433C107.985 57.7518 107.854 58.1206 107.854 58.5394C107.854 58.9519 107.973 59.2863 108.21 59.5426C108.448 59.7926 108.738 59.9926 109.082 60.1426C109.432 60.2864 109.773 60.4052 110.104 60.4989L112.673 61.2396C112.967 61.3209 113.304 61.4334 113.686 61.5771C114.073 61.7209 114.448 61.924 114.811 62.1866C115.173 62.4428 115.473 62.7866 115.711 63.2179C115.948 63.6429 116.067 64.1805 116.067 64.8305C116.067 65.4806 115.936 66.0588 115.673 66.5651C115.417 67.0714 115.058 67.4964 114.595 67.8402C114.133 68.1777 113.595 68.434 112.983 68.609C112.37 68.7903 111.714 68.8809 111.014 68.8809Z" fill="#447713"/>
<path d="M1.44112 78.834V72.2476H1.96712V75.3761L5.10022 72.2476H5.79544L2.64405 75.4127L6.06988 78.834H5.3655L1.96712 75.4676V78.834H1.44112ZM6.80327 78.834V72.2476H7.32926V78.834H6.80327ZM8.70392 78.834V72.2476H9.23449L13.0491 77.8963V72.2476H13.5797V78.834H13.0491L9.23449 73.1761V78.834H8.70392ZM14.859 78.834V72.2476H16.8212C16.8974 72.2476 17.0209 72.2491 17.1917 72.2522C17.3655 72.2552 17.5301 72.269 17.6856 72.2934C18.1796 72.3604 18.5897 72.5464 18.916 72.8514C19.2423 73.1532 19.4862 73.5374 19.6478 74.004C19.8094 74.4675 19.8902 74.9797 19.8902 75.5408C19.8902 76.1049 19.8094 76.6202 19.6478 77.0868C19.4862 77.5503 19.2423 77.9329 18.916 78.2348C18.5897 78.5367 18.1796 78.7212 17.6856 78.7882C17.5301 78.8096 17.3639 78.8233 17.1871 78.8294C17.0133 78.8325 16.8913 78.834 16.8212 78.834H14.859ZM15.4124 78.3171H16.8212C16.9584 78.3171 17.1002 78.3141 17.2466 78.308C17.3929 78.2988 17.5179 78.2851 17.6216 78.2668C18.0302 78.1936 18.3595 78.032 18.6096 77.782C18.8596 77.5289 19.041 77.2103 19.1539 76.8261C19.2697 76.4388 19.3277 76.0104 19.3277 75.5408C19.3277 75.0682 19.2697 74.6397 19.1539 74.2555C19.038 73.8683 18.855 73.5496 18.605 73.2996C18.355 73.0465 18.0272 72.8849 17.6216 72.8148C17.5179 72.7965 17.3899 72.7843 17.2374 72.7782C17.088 72.769 16.9492 72.7645 16.8212 72.7645H15.4124V78.3171ZM20.9069 78.834V72.2476H21.4374L25.252 77.8963V72.2476H25.7826V78.834H25.252L21.4374 73.1761V78.834H20.9069ZM27.0619 78.834V72.2476H31.1327V72.7599H27.5879V75.2618H30.5838V75.7741H27.5879V78.3217H31.1327V78.834H27.0619ZM34.1672 78.9712C33.7159 78.9712 33.3089 78.8965 32.946 78.7471C32.5862 78.5977 32.2874 78.3857 32.0495 78.1113C31.8147 77.8369 31.6577 77.5106 31.5784 77.1325L32.1181 77.041C32.2309 77.4801 32.4718 77.8262 32.8408 78.0793C33.2128 78.3324 33.6595 78.4589 34.1809 78.4589C34.5346 78.4589 34.8472 78.4025 35.1186 78.2897C35.39 78.1769 35.6019 78.0183 35.7543 77.814C35.9068 77.6067 35.983 77.3658 35.983 77.0913C35.983 76.8931 35.9464 76.727 35.8733 76.5928C35.8031 76.4586 35.7117 76.3488 35.5988 76.2635C35.486 76.175 35.3656 76.1049 35.2375 76.0531C35.1094 75.9982 34.989 75.954 34.8762 75.9204L33.2204 75.4265C33.0009 75.3624 32.8042 75.2831 32.6304 75.1886C32.4596 75.091 32.3148 74.9797 32.1959 74.8547C32.08 74.7267 31.9901 74.5818 31.926 74.4202C31.865 74.2586 31.8345 74.0787 31.8345 73.8805C31.8345 73.5268 31.9291 73.2173 32.1181 72.952C32.3072 72.6867 32.5664 72.4809 32.8957 72.3345C33.228 72.1851 33.6092 72.1104 34.0391 72.1104C34.4721 72.1134 34.8609 72.1943 35.2055 72.3528C35.55 72.5083 35.8321 72.7294 36.0516 73.016C36.2742 73.3027 36.4176 73.6426 36.4816 74.036L35.9373 74.132C35.8946 73.8302 35.7848 73.5664 35.608 73.3408C35.4342 73.1151 35.2116 72.9398 34.9402 72.8148C34.6688 72.6898 34.3669 72.6272 34.0346 72.6272C33.7144 72.6242 33.4308 72.6776 33.1838 72.7873C32.9399 72.8971 32.7478 73.045 32.6075 73.231C32.4673 73.417 32.3971 73.6274 32.3971 73.8622C32.3971 74.1061 32.4627 74.3013 32.5938 74.4476C32.728 74.591 32.8911 74.7038 33.0832 74.7861C33.2784 74.8684 33.4644 74.9355 33.6412 74.9874L34.9676 75.3807C35.0927 75.4173 35.2421 75.4691 35.4159 75.5362C35.5897 75.6033 35.7604 75.6994 35.9282 75.8244C36.0959 75.9463 36.2346 76.1095 36.3444 76.3138C36.4572 76.515 36.5136 76.7681 36.5136 77.073C36.5136 77.3688 36.4572 77.6341 36.3444 77.8689C36.2316 78.1037 36.0699 78.3034 35.8595 78.4681C35.6491 78.6297 35.4006 78.7532 35.114 78.8386C34.8274 78.927 34.5118 78.9712 34.1672 78.9712ZM39.8131 78.9712C39.3618 78.9712 38.9547 78.8965 38.5919 78.7471C38.232 78.5977 37.9332 78.3857 37.6954 78.1113C37.4606 77.8369 37.3036 77.5106 37.2243 77.1325L37.764 77.041C37.8768 77.4801 38.1177 77.8262 38.4867 78.0793C38.8587 78.3324 39.3054 78.4589 39.8268 78.4589C40.1805 78.4589 40.4931 78.4025 40.7644 78.2897C41.0358 78.1769 41.2478 78.0183 41.4002 77.814C41.5527 77.6067 41.6289 77.3658 41.6289 77.0913C41.6289 76.8931 41.5923 76.727 41.5191 76.5928C41.449 76.4586 41.3575 76.3488 41.2447 76.2635C41.1319 76.175 41.0114 76.1049 40.8834 76.0531C40.7553 75.9982 40.6349 75.954 40.522 75.9204L38.8663 75.4265C38.6467 75.3624 38.4501 75.2831 38.2763 75.1886C38.1055 75.091 37.9607 74.9797 37.8417 74.8547C37.7259 74.7267 37.6359 74.5818 37.5719 74.4202C37.5109 74.2586 37.4804 74.0787 37.4804 73.8805C37.4804 73.5268 37.5749 73.2173 37.764 72.952C37.953 72.6867 38.2122 72.4809 38.5415 72.3345C38.8739 72.1851 39.2551 72.1104 39.685 72.1104C40.118 72.1134 40.5068 72.1943 40.8513 72.3528C41.1959 72.5083 41.478 72.7294 41.6975 73.016C41.9201 73.3027 42.0634 73.6426 42.1275 74.036L41.5832 74.132C41.5405 73.8302 41.4307 73.5664 41.2539 73.3408C41.08 73.1151 40.8574 72.9398 40.5861 72.8148C40.3147 72.6898 40.0128 72.6272 39.6804 72.6272C39.3603 72.6242 39.0767 72.6776 38.8297 72.7873C38.5858 72.8971 38.3937 73.045 38.2534 73.231C38.1131 73.417 38.043 73.6274 38.043 73.8622C38.043 74.1061 38.1086 74.3013 38.2397 74.4476C38.3738 74.591 38.537 74.7038 38.7291 74.7861C38.9242 74.8684 39.1102 74.9355 39.2871 74.9874L40.6135 75.3807C40.7385 75.4173 40.8879 75.4691 41.0617 75.5362C41.2356 75.6033 41.4063 75.6994 41.574 75.8244C41.7417 75.9463 41.8805 76.1095 41.9902 76.3138C42.1031 76.515 42.1595 76.7681 42.1595 77.073C42.1595 77.3688 42.1031 77.6341 41.9902 77.8689C41.8774 78.1037 41.7158 78.3034 41.5054 78.4681C41.295 78.6297 41.0465 78.7532 40.7599 78.8386C40.4732 78.927 40.1576 78.9712 39.8131 78.9712ZM45.0111 78.834V72.2476H45.5371V78.834H45.0111ZM49.1484 78.9712C48.6971 78.9712 48.2901 78.8965 47.9272 78.7471C47.5674 78.5977 47.2686 78.3857 47.0307 78.1113C46.7959 77.8369 46.6389 77.5106 46.5596 77.1325L47.0993 77.041C47.2121 77.4801 47.453 77.8262 47.822 78.0793C48.194 78.3324 48.6407 78.4589 49.1621 78.4589C49.5159 78.4589 49.8284 78.4025 50.0998 78.2897C50.3712 78.1769 50.5831 78.0183 50.7355 77.814C50.888 77.6067 50.9642 77.3658 50.9642 77.0913C50.9642 76.8931 50.9277 76.727 50.8545 76.5928C50.7843 76.4586 50.6929 76.3488 50.58 76.2635C50.4672 76.175 50.3468 76.1049 50.2187 76.0531C50.0906 75.9982 49.9702 75.954 49.8574 75.9204L48.2016 75.4265C47.9821 75.3624 47.7854 75.2831 47.6116 75.1886C47.4408 75.091 47.296 74.9797 47.1771 74.8547C47.0612 74.7267 46.9713 74.5818 46.9072 74.4202C46.8462 74.2586 46.8157 74.0787 46.8157 73.8805C46.8157 73.5268 46.9103 73.2173 47.0993 72.952C47.2884 72.6867 47.5476 72.4809 47.8769 72.3345C48.2092 72.1851 48.5904 72.1104 49.0203 72.1104C49.4533 72.1134 49.8421 72.1943 50.1867 72.3528C50.5312 72.5083 50.8133 72.7294 51.0328 73.016C51.2554 73.3027 51.3988 73.6426 51.4628 74.036L50.9185 74.132C50.8758 73.8302 50.766 73.5664 50.5892 73.3408C50.4154 73.1151 50.1928 72.9398 49.9214 72.8148C49.65 72.6898 49.3481 72.6272 49.0158 72.6272C48.6956 72.6242 48.412 72.6776 48.165 72.7873C47.9211 72.8971 47.729 73.045 47.5887 73.231C47.4485 73.417 47.3783 73.6274 47.3783 73.8622C47.3783 74.1061 47.4439 74.3013 47.575 74.4476C47.7092 74.591 47.8723 74.7038 48.0644 74.7861C48.2596 74.8684 48.4456 74.9355 48.6224 74.9874L49.9488 75.3807C50.0739 75.4173 50.2233 75.4691 50.3971 75.5362C50.5709 75.6033 50.7416 75.6994 50.9094 75.8244C51.0771 75.9463 51.2158 76.1095 51.3256 76.3138C51.4384 76.515 51.4948 76.7681 51.4948 77.073C51.4948 77.3688 51.4384 77.6341 51.3256 77.8689C51.2128 78.1037 51.0511 78.3034 50.8407 78.4681C50.6303 78.6297 50.3818 78.7532 50.0952 78.8386C49.8086 78.927 49.493 78.9712 49.1484 78.9712ZM54.255 78.834V72.2476H56.7386C56.8026 72.2476 56.8712 72.2507 56.9444 72.2568C57.0207 72.2598 57.0999 72.269 57.1823 72.2842C57.5116 72.336 57.7936 72.455 58.0284 72.641C58.2663 72.8239 58.4477 73.0557 58.5727 73.3362C58.6977 73.6137 58.7603 73.9201 58.7603 74.2555C58.7603 74.594 58.6977 74.9035 58.5727 75.184C58.4477 75.4615 58.2663 75.6933 58.0284 75.8793C57.7936 76.0622 57.5116 76.1796 57.1823 76.2315C57.0999 76.2437 57.0207 76.2528 56.9444 76.2589C56.8712 76.265 56.8026 76.268 56.7386 76.268H54.781V78.834H54.255ZM54.781 75.7512H56.7295C56.7843 75.7512 56.8469 75.7481 56.917 75.742C56.9902 75.736 57.0634 75.7268 57.1365 75.7146C57.3744 75.6658 57.5726 75.5698 57.7311 75.4265C57.8897 75.2801 58.0086 75.1048 58.0879 74.9005C58.1672 74.6962 58.2068 74.4812 58.2068 74.2555C58.2068 74.0299 58.1672 73.8165 58.0879 73.6152C58.0086 73.4109 57.8897 73.2371 57.7311 73.0938C57.5726 72.9474 57.3744 72.8498 57.1365 72.8011C57.0634 72.7858 56.9902 72.7751 56.917 72.769C56.8469 72.7629 56.7843 72.7599 56.7295 72.7599H54.781V75.7512ZM59.6775 78.834V72.2476H62.1611C62.2252 72.2476 62.2938 72.2507 62.367 72.2568C62.4432 72.2598 62.5225 72.269 62.6048 72.2842C62.9341 72.336 63.2162 72.455 63.451 72.641C63.6888 72.8239 63.8702 73.0557 63.9953 73.3362C64.1203 73.6137 64.1828 73.9201 64.1828 74.2555C64.1828 74.7404 64.0532 75.1627 63.794 75.5225C63.5348 75.8823 63.1735 76.111 62.71 76.2086L62.5591 76.268H60.2035V78.834H59.6775ZM63.7346 78.834L62.4356 76.1537L62.925 75.9067L64.352 78.834H63.7346ZM60.2035 75.7512H62.152C62.2069 75.7512 62.2694 75.7481 62.3395 75.742C62.4127 75.736 62.4859 75.7268 62.5591 75.7146C62.7969 75.6658 62.9951 75.5698 63.1537 75.4265C63.3122 75.2801 63.4312 75.1048 63.5104 74.9005C63.5897 74.6962 63.6294 74.4812 63.6294 74.2555C63.6294 74.0299 63.5897 73.8165 63.5104 73.6152C63.4312 73.4109 63.3122 73.2371 63.1537 73.0938C62.9951 72.9474 62.7969 72.8498 62.5591 72.8011C62.4859 72.7858 62.4127 72.7751 62.3395 72.769C62.2694 72.7629 62.2069 72.7599 62.152 72.7599H60.2035V75.7512ZM67.9891 78.9712C67.3335 78.9712 66.7831 78.8264 66.3379 78.5367C65.8927 78.244 65.5573 77.8399 65.3317 77.3246C65.106 76.8093 64.9932 76.2147 64.9932 75.5408C64.9932 74.8669 65.106 74.2723 65.3317 73.757C65.5573 73.2417 65.8927 72.8392 66.3379 72.5495C66.7831 72.2568 67.3335 72.1104 67.9891 72.1104C68.6447 72.1104 69.1936 72.2568 69.6357 72.5495C70.0809 72.8392 70.4163 73.2417 70.6419 73.757C70.8676 74.2723 70.9804 74.8669 70.9804 75.5408C70.9804 76.2147 70.8676 76.8093 70.6419 77.3246C70.4163 77.8399 70.0809 78.244 69.6357 78.5367C69.1936 78.8264 68.6447 78.9712 67.9891 78.9712ZM67.9891 78.4544C68.5288 78.4574 68.9786 78.3354 69.3384 78.0884C69.6982 77.8384 69.9681 77.4938 70.148 77.0547C70.3279 76.6157 70.4178 76.111 70.4178 75.5408C70.4178 74.9706 70.3279 74.4659 70.148 74.0268C69.9681 73.5878 69.6982 73.2447 69.3384 72.9977C68.9786 72.7507 68.5288 72.6272 67.9891 72.6272C67.4494 72.6242 66.9996 72.7462 66.6398 72.9932C66.2831 73.2401 66.0147 73.5847 65.8348 74.0268C65.6549 74.4659 65.5619 74.9706 65.5558 75.5408C65.5497 76.111 65.6366 76.6157 65.8165 77.0547C65.9995 77.4908 66.2724 77.8338 66.6352 78.0839C66.9981 78.3309 67.4494 78.4544 67.9891 78.4544ZM74.5283 78.9712C73.8727 78.9712 73.3223 78.8264 72.8771 78.5367C72.4319 78.244 72.0965 77.8399 71.8709 77.3246C71.6452 76.8093 71.5324 76.2147 71.5324 75.5408C71.5324 74.8669 71.6452 74.2723 71.8709 73.757C72.0965 73.2417 72.4319 72.8392 72.8771 72.5495C73.3223 72.2568 73.8727 72.1104 74.5283 72.1104C75.1839 72.1104 75.7328 72.2568 76.1749 72.5495C76.6201 72.8392 76.9555 73.2417 77.1811 73.757C77.4068 74.2723 77.5196 74.8669 77.5196 75.5408C77.5196 76.2147 77.4068 76.8093 77.1811 77.3246C76.9555 77.8399 76.6201 78.244 76.1749 78.5367C75.7328 78.8264 75.1839 78.9712 74.5283 78.9712ZM74.5283 78.4544C75.068 78.4574 75.5178 78.3354 75.8776 78.0884C76.2374 77.8384 76.5073 77.4938 76.6872 77.0547C76.8671 76.6157 76.957 76.111 76.957 75.5408C76.957 74.9706 76.8671 74.4659 76.6872 74.0268C76.5073 73.5878 76.2374 73.2447 75.8776 72.9977C75.5178 72.7507 75.068 72.6272 74.5283 72.6272C73.9886 72.6242 73.5388 72.7462 73.179 72.9932C72.8223 73.2401 72.5539 73.5847 72.374 74.0268C72.1941 74.4659 72.1011 74.9706 72.095 75.5408C72.0889 76.111 72.1758 76.6157 72.3557 77.0547C72.5387 77.4908 72.8116 77.8338 73.1744 78.0839C73.5373 78.3309 73.9886 78.4544 74.5283 78.4544ZM78.4375 78.834V72.2476H82.1561V72.7736H78.9635V75.2755H81.6072V75.8061H78.9635V78.834H78.4375ZM87.437 78.9712C86.7814 78.9712 86.231 78.8264 85.7858 78.5367C85.3406 78.244 85.0052 77.8399 84.7796 77.3246C84.5539 76.8093 84.4411 76.2147 84.4411 75.5408C84.4411 74.8669 84.5539 74.2723 84.7796 73.757C85.0052 73.2417 85.3406 72.8392 85.7858 72.5495C86.231 72.2568 86.7814 72.1104 87.437 72.1104C88.0926 72.1104 88.6414 72.2568 89.0836 72.5495C89.5288 72.8392 89.8642 73.2417 90.0898 73.757C90.3155 74.2723 90.4283 74.8669 90.4283 75.5408C90.4283 76.2147 90.3155 76.8093 90.0898 77.3246C89.8642 77.8399 89.5288 78.244 89.0836 78.5367C88.6414 78.8264 88.0926 78.9712 87.437 78.9712ZM87.437 78.4544C87.9767 78.4574 88.4265 78.3354 88.7863 78.0884C89.1461 77.8384 89.4159 77.4938 89.5958 77.0547C89.7757 76.6157 89.8657 76.111 89.8657 75.5408C89.8657 74.9706 89.7757 74.4659 89.5958 74.0268C89.4159 73.5878 89.1461 73.2447 88.7863 72.9977C88.4265 72.7507 87.9767 72.6272 87.437 72.6272C86.8973 72.6242 86.4475 72.7462 86.0877 72.9932C85.7309 73.2401 85.4626 73.5847 85.2827 74.0268C85.1028 74.4659 85.0098 74.9706 85.0037 75.5408C84.9976 76.111 85.0845 76.6157 85.2644 77.0547C85.4473 77.4908 85.7202 77.8338 86.0831 78.0839C86.446 78.3309 86.8973 78.4544 87.437 78.4544ZM91.3462 78.834V72.2476H95.0648V72.7736H91.8722V75.2755H94.5159V75.8061H91.8722V78.834H91.3462ZM100.332 78.9712C99.8532 78.9712 99.4278 78.8889 99.0558 78.7242C98.6869 78.5596 98.3758 78.3263 98.1227 78.0244C97.8697 77.7225 97.6776 77.3612 97.5464 76.9404C97.4153 76.5196 97.3498 76.0531 97.3498 75.5408C97.3498 74.8608 97.4641 74.2647 97.6928 73.7524C97.9245 73.2371 98.2615 72.8361 98.7036 72.5495C99.1458 72.2629 99.6885 72.1195 100.332 72.1195C100.997 72.1195 101.542 72.2751 101.969 72.5861C102.399 72.8971 102.701 73.3057 102.875 73.8119L102.354 73.972C102.201 73.5664 101.953 73.2432 101.608 73.0023C101.267 72.7584 100.846 72.6349 100.346 72.6318C99.8059 72.6318 99.3562 72.7553 98.9963 73.0023C98.6396 73.2462 98.3713 73.5878 98.1913 74.0268C98.0114 74.4659 97.9184 74.9706 97.9123 75.5408C97.9062 76.111 97.9931 76.6157 98.1731 77.0547C98.356 77.4908 98.6289 77.8338 98.9918 78.0839C99.3546 78.3309 99.8059 78.4544 100.346 78.4544C100.861 78.4574 101.282 78.3568 101.608 78.1525C101.937 77.9482 102.181 77.6615 102.34 77.2926C102.501 76.9206 102.588 76.4861 102.601 75.989H100.963V75.5088H103.149C103.159 75.585 103.163 75.6597 103.163 75.7329C103.166 75.8061 103.168 75.8625 103.168 75.9021C103.168 76.4845 103.066 77.0075 102.861 77.471C102.66 77.9345 102.349 78.3004 101.928 78.5687C101.51 78.837 100.978 78.9712 100.332 78.9712ZM106.715 78.9712C106.06 78.9712 105.509 78.8264 105.064 78.5367C104.619 78.244 104.283 77.8399 104.058 77.3246C103.832 76.8093 103.719 76.2147 103.719 75.5408C103.719 74.8669 103.832 74.2723 104.058 73.757C104.283 73.2417 104.619 72.8392 105.064 72.5495C105.509 72.2568 106.06 72.1104 106.715 72.1104C107.371 72.1104 107.92 72.2568 108.362 72.5495C108.807 72.8392 109.142 73.2417 109.368 73.757C109.594 74.2723 109.706 74.8669 109.706 75.5408C109.706 76.2147 109.594 76.8093 109.368 77.3246C109.142 77.8399 108.807 78.244 108.362 78.5367C107.92 78.8264 107.371 78.9712 106.715 78.9712ZM106.715 78.4544C107.255 78.4574 107.705 78.3354 108.064 78.0884C108.424 77.8384 108.694 77.4938 108.874 77.0547C109.054 76.6157 109.144 76.111 109.144 75.5408C109.144 74.9706 109.054 74.4659 108.874 74.0268C108.694 73.5878 108.424 73.2447 108.064 72.9977C107.705 72.7507 107.255 72.6272 106.715 72.6272C106.175 72.6242 105.726 72.7462 105.366 72.9932C105.009 73.2401 104.741 73.5847 104.561 74.0268C104.381 74.4659 104.288 74.9706 104.282 75.5408C104.276 76.111 104.363 76.6157 104.543 77.0547C104.725 77.4908 104.998 77.8338 105.361 78.0839C105.724 78.3309 106.175 78.4544 106.715 78.4544ZM110.624 78.834V72.2476H112.587C112.663 72.2476 112.786 72.2491 112.957 72.2522C113.131 72.2552 113.295 72.269 113.451 72.2934C113.945 72.3604 114.355 72.5464 114.681 72.8514C115.008 73.1532 115.252 73.5374 115.413 74.004C115.575 74.4675 115.656 74.9797 115.656 75.5408C115.656 76.1049 115.575 76.6202 115.413 77.0868C115.252 77.5503 115.008 77.9329 114.681 78.2348C114.355 78.5367 113.945 78.7212 113.451 78.7882C113.295 78.8096 113.129 78.8233 112.952 78.8294C112.779 78.8325 112.657 78.834 112.587 78.834H110.624ZM111.178 78.3171H112.587C112.724 78.3171 112.866 78.3141 113.012 78.308C113.158 78.2988 113.283 78.2851 113.387 78.2668C113.796 78.1936 114.125 78.032 114.375 77.782C114.625 77.5289 114.806 77.2103 114.919 76.8261C115.035 76.4388 115.093 76.0104 115.093 75.5408C115.093 75.0682 115.035 74.6397 114.919 74.2555C114.803 73.8683 114.62 73.5496 114.37 73.2996C114.12 73.0465 113.793 72.8849 113.387 72.8148C113.283 72.7965 113.155 72.7843 113.003 72.7782C112.853 72.769 112.715 72.7645 112.587 72.7645H111.178V78.3171Z" fill="#400B72"/>
<path d="M37.6017 32.2479C37.1393 32.3167 36.9869 32.753 37.0718 33.1721C37.1544 33.5796 37.3701 33.939 37.6609 34.2246C37.3433 34.4178 36.9656 34.7086 36.9172 35.0687C36.8612 35.4857 37.2493 35.8157 37.6285 35.8462C38.1095 35.8849 38.5846 35.5841 38.9483 35.294C39.3115 35.0042 39.6763 34.6098 39.8554 34.1676C39.9336 34.1551 40.0008 34.08 39.9508 33.9918C39.7022 33.5529 39.3839 33.1647 38.993 32.848C38.6299 32.5538 38.0929 32.1747 37.6017 32.2479Z" fill="#9B2C87"/>
<path d="M38.9748 36.3994C38.7065 36.7808 38.9211 37.1885 39.2868 37.4129C39.6424 37.6311 40.0543 37.7203 40.4641 37.7048C40.3867 38.0662 40.3395 38.5375 40.5701 38.8182C40.837 39.1431 41.3463 39.0875 41.63 38.8341C41.9899 38.5127 42.097 37.964 42.1351 37.5031C42.1731 37.0429 42.1355 36.5102 41.935 36.079C41.9797 36.014 41.971 35.9142 41.8719 35.8902C41.3789 35.7706 40.875 35.736 40.3736 35.8027C39.9076 35.8646 39.2598 35.9944 38.9748 36.3994Z" fill="#410B72"/>
<path d="M40.9024 28.7937C40.5028 28.5491 40.1033 28.783 39.8969 29.1565C39.6962 29.5196 39.6289 29.9314 39.667 30.3355C39.2981 30.2784 38.8199 30.2571 38.5494 30.5C38.2362 30.7813 38.3203 31.2816 38.5915 31.5483C38.9354 31.8867 39.495 31.9631 39.962 31.9759C40.4285 31.9888 40.964 31.9231 41.388 31.7018C41.456 31.7424 41.5562 31.7285 41.575 31.6293C41.6687 31.1357 41.6759 30.6359 41.5812 30.1439C41.4931 29.6868 41.3266 29.0536 40.9024 28.7937Z" fill="#764095"/>
<path d="M43.9102 25.1883C43.5107 24.9436 43.1111 25.1776 42.9047 25.551C42.704 25.9141 42.6367 26.3259 42.6748 26.73C42.3059 26.673 41.8277 26.6517 41.5572 26.8946C41.244 27.1758 41.3281 27.6761 41.5993 27.9429C41.9433 28.2812 42.5028 28.3576 42.9698 28.3705C43.4363 28.3833 43.9718 28.3176 44.3958 28.0963C44.4638 28.137 44.564 28.123 44.5829 28.0238C44.6765 27.5302 44.6837 27.0304 44.589 26.5385C44.5009 26.0814 44.3344 25.4481 43.9102 25.1883Z" fill="#764095"/>
<path d="M49.3203 24.5867C48.9208 24.342 48.5212 24.576 48.3149 24.9495C48.1142 25.3125 48.0468 25.7244 48.0849 26.1285C47.7161 26.0714 47.2379 26.0501 46.9674 26.293C46.6542 26.5742 46.7382 27.0745 47.0094 27.3413C47.3534 27.6797 47.9129 27.756 48.38 27.7689C48.8464 27.7818 49.3819 27.716 49.8059 27.4947C49.874 27.5354 49.9742 27.5214 49.993 27.4222C50.0866 26.9286 50.0939 26.4288 49.9991 25.9369C49.9111 25.4798 49.7446 24.8465 49.3203 24.5867Z" fill="#9B2C87"/>
<path d="M54.6297 24.8194C54.8769 24.424 54.6404 24.0285 54.2631 23.8243C53.8962 23.6258 53.48 23.5592 53.0716 23.5969C53.1293 23.2319 53.1508 22.7586 52.9053 22.4909C52.6211 22.1811 52.1155 22.2643 51.846 22.5327C51.5041 22.8731 51.427 23.4268 51.414 23.8891C51.4011 24.3507 51.4675 24.8806 51.6912 25.3001C51.6501 25.3675 51.6642 25.4667 51.7645 25.4853C52.2633 25.5779 52.7683 25.585 53.2654 25.4912C53.7273 25.4041 54.3672 25.2392 54.6297 24.8194Z" fill="#764095"/>
<path d="M59.6816 29.7399C59.8769 29.4211 59.6771 29.0942 59.3655 28.9213C59.0625 28.7531 58.7215 28.6918 58.3886 28.7159C58.4296 28.4187 58.4391 28.0326 58.2342 27.8099C57.9968 27.5522 57.5854 27.6118 57.3698 27.8265C57.0963 28.0989 57.0427 28.5499 57.0398 28.9271C57.037 29.3039 57.1002 29.7377 57.29 30.0841C57.2575 30.1384 57.2707 30.2196 57.3529 30.2365C57.7618 30.3204 58.1744 30.3345 58.5788 30.2661C58.9545 30.2025 59.4743 30.0785 59.6816 29.7399Z" fill="#410B72"/>
<path d="M58.7595 23.5135C58.4278 23.1828 57.9851 23.318 57.6978 23.6336C57.4185 23.9405 57.2575 24.3258 57.2008 24.7279C56.8554 24.5869 56.3954 24.4554 56.0761 24.6291C55.7064 24.8303 55.672 25.3367 55.8738 25.6592C56.1298 26.0682 56.656 26.2722 57.1071 26.3929C57.5576 26.5135 58.0935 26.5736 58.557 26.4565C58.6138 26.5118 58.7144 26.5215 58.7558 26.4293C58.9613 25.9705 59.0842 25.4857 59.1062 24.985C59.1267 24.5197 59.1117 23.8647 58.7595 23.5135Z" fill="#9B2C87"/>
<path d="M74.5757 38.8526C74.9489 39.1359 75.3697 38.9428 75.6122 38.5917C75.848 38.2503 75.956 37.8472 75.9583 37.4413C76.3196 37.5348 76.7933 37.6035 77.0866 37.3887C77.4262 37.14 77.3924 36.6338 77.1491 36.3413C76.8405 35.9704 76.2914 35.8387 75.828 35.7794C75.3652 35.7202 74.8259 35.7324 74.382 35.9104C74.3184 35.8631 74.2173 35.8671 74.1887 35.9639C74.0464 36.4458 73.9894 36.9425 74.0347 37.4414C74.0769 37.9051 74.1795 38.5518 74.5757 38.8526Z" fill="#9B2C87"/>
<path d="M78.7797 35.7195C79.2402 35.6383 79.3806 35.1982 79.2843 34.7814C79.1906 34.3762 78.9653 34.0228 78.6669 33.745C78.9791 33.5434 79.3486 33.2426 79.3872 32.8813C79.4319 32.4629 79.035 32.1434 78.6551 32.123C78.1733 32.0971 77.7065 32.4105 77.3509 32.7103C76.9957 33.0096 76.6418 33.4136 76.4747 33.8604C76.397 33.875 76.3318 33.9518 76.3842 34.0387C76.6446 34.4709 76.9734 34.8505 77.3727 35.1566C77.7437 35.4411 78.2908 35.8057 78.7797 35.7195Z" fill="#9B2C87"/>
<path d="M77.8267 30.5185C78.0198 30.0941 77.7335 29.733 77.3327 29.5801C76.9429 29.4314 76.5217 29.4199 76.1219 29.5109C76.1311 29.1414 76.0903 28.6694 75.8119 28.4362C75.4895 28.1662 74.9993 28.3151 74.7674 28.6166C74.4732 28.999 74.4695 29.5582 74.5173 30.0182C74.5651 30.4776 74.7005 30.9943 74.9773 31.3809C74.9454 31.4531 74.9724 31.5496 75.0742 31.5549C75.5808 31.5813 76.0823 31.522 76.5627 31.3638C77.009 31.2167 77.6216 30.9693 77.8267 30.5185Z" fill="#9B2C87"/>
<path d="M73.6197 26.9111C73.8128 26.4866 73.5265 26.1256 73.1257 25.9727C72.7359 25.824 72.3147 25.8125 71.9149 25.9035C71.9241 25.534 71.8833 25.062 71.6048 24.8288C71.2824 24.5588 70.7923 24.7076 70.5603 25.0092C70.2662 25.3916 70.2624 25.9507 70.3103 26.4107C70.358 26.8701 70.4935 27.3868 70.7703 27.7735C70.7384 27.8457 70.7654 27.9422 70.8672 27.9475C71.3738 27.9738 71.8752 27.9146 72.3556 27.7564C72.802 27.6093 73.4146 27.3619 73.6197 26.9111Z" fill="#410B72"/>
<path d="M68.8111 27.5127C69.0042 27.0882 68.7179 26.7272 68.3171 26.5742C67.9273 26.4255 67.5061 26.4141 67.1063 26.5051C67.1155 26.1356 67.0747 25.6635 66.7962 25.4303C66.4738 25.1604 65.9837 25.3092 65.7517 25.6107C65.4576 25.9932 65.4539 26.5523 65.5017 27.0123C65.5494 27.4717 65.6849 27.9884 65.9617 28.3751C65.9298 28.4472 65.9568 28.5437 66.0586 28.549C66.5652 28.5754 67.0667 28.5162 67.547 28.3579C67.9934 28.2109 68.606 27.9635 68.8111 27.5127Z" fill="#9B2C87"/>
<path d="M68.391 22.1418C68.4058 21.6752 68.0031 21.4502 67.5748 21.4615C67.1583 21.4725 66.7656 21.6226 66.432 21.8594C66.2985 21.5138 66.0793 21.0924 65.733 20.9827C65.332 20.8558 64.9374 21.1806 64.8395 21.5482C64.7153 22.0144 64.9269 22.5335 65.1478 22.9411C65.3685 23.3481 65.692 23.7747 66.0958 24.0271C66.0941 24.1061 66.1561 24.1851 66.252 24.1512C66.7291 23.9823 67.1687 23.7362 67.5507 23.4065C67.9056 23.1 68.3752 22.6373 68.391 22.1418Z" fill="#764095"/>
<path d="M61.5677 21.4017C61.8502 21.0307 61.6511 20.6152 61.2941 20.3772C60.947 20.1458 60.5387 20.0412 60.1287 20.0413C60.2196 19.683 60.2845 19.2137 60.0646 18.9246C59.8101 18.5899 59.2991 18.6263 59.0061 18.8689C58.6344 19.1765 58.5067 19.7209 58.4514 20.18C58.3961 20.6385 58.4136 21.1723 58.5977 21.6107C58.5506 21.674 58.5556 21.774 58.6537 21.8018C59.1418 21.9398 59.644 21.9933 60.1476 21.9455C60.6155 21.9012 61.2678 21.7958 61.5677 21.4017Z" fill="#9B2C87"/>
<path d="M65.5378 17.1947C65.2553 16.8237 65.4544 16.4082 65.8114 16.1702C66.1585 15.9387 66.5668 15.8342 66.9768 15.8342C66.8859 15.476 66.821 15.0067 67.0408 14.7176C67.2954 14.3829 67.8064 14.4193 68.0994 14.6619C68.4711 14.9695 68.5987 15.5138 68.6541 15.973C68.7094 16.4315 68.6919 16.9653 68.5077 17.4037C68.5548 17.4669 68.5499 17.567 68.4518 17.5948C67.9636 17.7328 67.4615 17.7863 66.9579 17.7385C66.49 17.6941 65.8377 17.5887 65.5378 17.1947Z" fill="#400B72"/>
<path d="M63.7221 22.1508C63.32 21.9105 62.923 22.1488 62.7207 22.5245C62.524 22.8898 62.4612 23.3024 62.5037 23.706C62.1342 23.653 61.6558 23.6369 61.388 23.8828C61.0779 24.1674 61.1674 24.6668 61.4415 24.9306C61.7892 25.2651 62.3495 25.3353 62.8167 25.3431C63.2833 25.3509 63.818 25.2793 64.2395 25.0533C64.308 25.0933 64.4081 25.0782 64.4258 24.9788C64.5141 24.4842 64.5158 23.9844 64.4157 23.4935C64.3226 23.0374 64.1492 22.406 63.7221 22.1508Z" fill="#764095"/>
<path d="M56.5073 17.9438C56.1051 17.7035 55.7081 17.9418 55.5059 18.3175C55.3092 18.6828 55.2463 19.0953 55.2889 19.499C54.9194 19.4459 54.441 19.4299 54.1731 19.6757C53.8631 19.9604 53.9526 20.4597 54.2267 20.7235C54.5744 21.0581 55.1347 21.1283 55.6019 21.1361C56.0684 21.1438 56.6031 21.0723 57.0247 20.8463C57.0932 20.8862 57.1932 20.8712 57.211 20.7718C57.2992 20.2772 57.301 19.7773 57.2009 19.2865C57.1078 18.8303 56.9344 18.1989 56.5073 17.9438Z" fill="#764095"/>
<path d="M51.0971 14.9379C50.695 14.6976 50.298 14.936 50.0957 15.3116C49.899 15.6769 49.8362 16.0895 49.8787 16.4931C49.5092 16.4401 49.0308 16.424 48.763 16.6699C48.4529 16.9545 48.5424 17.4539 48.8165 17.7177C49.1642 18.0522 49.7245 18.1225 50.1917 18.1302C50.6583 18.138 51.193 18.0664 51.6145 17.8404C51.683 17.8804 51.7831 17.8653 51.8008 17.7659C51.8891 17.2713 51.8908 16.7715 51.7907 16.2806C51.6976 15.8245 51.5242 15.1931 51.0971 14.9379Z" fill="#410B72"/>
<path d="M63.3875 15.3387C63.0208 15.0471 62.5958 15.2307 62.3454 15.5763C62.102 15.9122 61.985 16.3129 61.9735 16.7186C61.6144 16.617 61.1424 16.5376 60.8443 16.7457C60.4993 16.9867 60.5216 17.4936 60.7583 17.7915C61.0584 18.1693 61.6043 18.3133 62.0663 18.3831C62.5276 18.4527 63.067 18.4527 63.5148 18.2847C63.5773 18.3334 63.6785 18.3317 63.7093 18.2356C63.8624 17.757 63.9305 17.2617 63.8965 16.7618C63.8648 16.2973 63.7768 15.6484 63.3875 15.3387Z" fill="#9B2C87"/>
<path d="M50.6164 20.3083C50.394 19.8966 49.9315 19.9005 49.566 20.1219C49.2107 20.3371 48.9461 20.6612 48.7765 21.0311C48.4864 20.7976 48.084 20.5406 47.7286 20.6167C47.3171 20.7047 47.1389 21.1811 47.2395 21.548C47.367 22.0133 47.8121 22.3586 48.2091 22.6027C48.6056 22.8464 49.1011 23.0563 49.5783 23.0756C49.6167 23.1448 49.7103 23.1827 49.7763 23.1059C50.1046 22.724 50.3613 22.2936 50.526 21.8192C50.6791 21.3783 50.8527 20.7454 50.6164 20.3083Z" fill="#9B2C87"/>
<path d="M46.6979 22.5371C46.4732 22.3653 46.1939 22.4921 46.0207 22.7152C45.8524 22.9321 45.7628 23.1859 45.7408 23.4398C45.5141 23.3865 45.2141 23.3503 45.0154 23.4888C44.7853 23.6493 44.7813 23.9655 44.9223 24.145C45.1011 24.3726 45.4462 24.4471 45.74 24.4776C46.0335 24.508 46.3796 24.4927 46.6729 24.375C46.7113 24.4036 46.7763 24.3997 46.7995 24.3387C46.915 24.0352 46.9767 23.7237 46.9729 23.4122C46.9694 23.1228 46.9365 22.7196 46.6979 22.5371Z" fill="#9B2C87"/>
<path d="M43.694 21.9375C43.4693 21.7657 43.1899 21.8925 43.0168 22.1156C42.8485 22.3325 42.7589 22.5863 42.7369 22.8402C42.5101 22.7869 42.2102 22.7507 42.0115 22.8892C41.7813 23.0497 41.7774 23.3659 41.9184 23.5454C42.0972 23.773 42.4423 23.8475 42.7361 23.878C43.0296 23.9084 43.3757 23.8931 43.669 23.7754C43.7074 23.804 43.7723 23.8001 43.7956 23.7391C43.9111 23.4356 43.9728 23.1241 43.969 22.8126C43.9655 22.5232 43.9326 22.12 43.694 21.9375Z" fill="#410B72"/>
<path d="M40.6862 21.9375C40.4615 21.7657 40.1821 21.8925 40.009 22.1156C39.8407 22.3325 39.7511 22.5863 39.729 22.8402C39.5023 22.7869 39.2024 22.7507 39.0036 22.8892C38.7735 23.0497 38.7695 23.3659 38.9106 23.5454C39.0894 23.773 39.4345 23.8475 39.7283 23.878C40.0218 23.9084 40.3678 23.8931 40.6612 23.7754C40.6996 23.804 40.7645 23.8001 40.7878 23.7391C40.9033 23.4356 40.965 23.1241 40.9612 22.8126C40.9577 22.5232 40.9248 22.12 40.6862 21.9375Z" fill="#9B2C87"/>
<path d="M39.4869 25.543C39.2623 25.3711 38.9829 25.498 38.8098 25.7211C38.6415 25.938 38.5519 26.1917 38.5298 26.4457C38.3031 26.3924 38.0032 26.3561 37.8044 26.4947C37.5743 26.6552 37.5703 26.9714 37.7114 27.1508C37.8902 27.3785 38.2353 27.453 38.5291 27.4835C38.8226 27.5139 39.1686 27.4986 39.462 27.3808C39.5004 27.4095 39.5653 27.4056 39.5885 27.3446C39.7041 27.0411 39.7657 26.7296 39.762 26.4181C39.7585 26.1286 39.7255 25.7255 39.4869 25.543Z" fill="#9B2C87"/>
<path d="M37.0807 29.1504C36.856 28.9786 36.5767 29.1054 36.4036 29.3285C36.2352 29.5454 36.1456 29.7992 36.1236 30.0531C35.8969 29.9998 35.597 29.9635 35.3982 30.1021C35.1681 30.2626 35.1641 30.5788 35.3051 30.7583C35.484 30.9859 35.829 31.0604 36.1229 31.0909C36.4163 31.1213 36.7624 31.106 37.0557 30.9883C37.0941 31.0169 37.1591 31.013 37.1823 30.952C37.2978 30.6485 37.3595 30.337 37.3557 30.0255C37.3523 29.7361 37.3193 29.3329 37.0807 29.1504Z" fill="#410B72"/>
<path d="M35.9188 36.8923C35.7755 37.1345 35.9386 37.3928 36.1845 37.5346C36.4236 37.6724 36.6894 37.7283 36.9467 37.7179C36.9225 37.9472 36.9248 38.2462 37.0893 38.4238C37.2798 38.6295 37.5971 38.5935 37.7588 38.4323C37.9639 38.228 37.9941 37.8799 37.9867 37.5876C37.9794 37.2956 37.9194 36.9578 37.7636 36.6847C37.7874 36.6434 37.7751 36.5801 37.711 36.565C37.392 36.4899 37.0719 36.4688 36.7602 36.5118C36.4706 36.5517 36.0709 36.635 35.9188 36.8923Z" fill="#9B2C87"/>
<path d="M47.4425 17.4145C47.2429 17.2142 46.9492 17.3027 46.7479 17.5009C46.5522 17.6935 46.4295 17.9332 46.3737 18.1821C46.1563 18.099 45.864 18.0231 45.6486 18.134C45.3992 18.2624 45.353 18.5754 45.4687 18.7722C45.6155 19.0217 45.9473 19.1416 46.2343 19.211C46.5209 19.2802 46.8658 19.3112 47.1721 19.2335C47.2063 19.267 47.2711 19.2718 47.3023 19.2144C47.4573 18.9289 47.56 18.6282 47.5979 18.3189C47.6332 18.0314 47.6544 17.6273 47.4425 17.4145Z" fill="#9B2C87"/>
<path d="M53.9338 21.4257C54.0754 21.1825 53.9106 20.9254 53.6637 20.7853C53.4238 20.6491 53.1576 20.5949 52.9003 20.6071C52.923 20.3776 52.9186 20.0787 52.7529 19.9021C52.5611 19.6978 52.244 19.736 52.0834 19.8982C51.8797 20.1039 51.8519 20.4522 51.8612 20.7445C51.8705 21.0363 51.9328 21.3737 52.0904 21.6458C52.0669 21.6872 52.0796 21.7504 52.1438 21.7651C52.4634 21.838 52.7836 21.857 53.095 21.8119C53.3843 21.77 53.7834 21.684 53.9338 21.4257Z" fill="#9B2C87"/>
<path d="M54.8203 14.412C54.6799 14.1668 54.3736 14.1768 54.1279 14.3167C53.889 14.4526 53.7083 14.6529 53.5897 14.8793C53.4016 14.7429 53.1394 14.5942 52.9028 14.6461C52.6288 14.7061 52.5028 14.9969 52.5632 15.2171C52.6399 15.4962 52.9288 15.6976 53.1876 15.8386C53.446 15.9794 53.7706 16.0981 54.0863 16.1019C54.1105 16.1431 54.1718 16.1644 54.2168 16.1169C54.4407 15.8807 54.6179 15.6163 54.735 15.3268C54.8438 15.0578 54.9694 14.6724 54.8203 14.412Z" fill="#9B2C87"/>
<path d="M58.4353 15.1353C58.5339 14.8717 58.3282 14.6459 58.0614 14.5493C57.802 14.4553 57.5305 14.4468 57.2791 14.502C57.2628 14.272 57.2081 13.9779 57.0151 13.8317C56.7917 13.6625 56.4856 13.7535 56.3547 13.9405C56.1886 14.1776 56.2199 14.5257 56.2783 14.8124C56.3366 15.0986 56.4547 15.4208 56.6559 15.6625C56.6397 15.7073 56.6629 15.7675 56.7286 15.7712C57.0558 15.7893 57.3745 15.7542 57.6738 15.6573C57.9518 15.5673 58.3307 15.4153 58.4353 15.1353Z" fill="#9B2C87"/>
<path d="M60.8377 16.94C60.9363 16.6764 60.7306 16.4506 60.4637 16.354C60.2043 16.26 59.9329 16.2514 59.6814 16.3067C59.6651 16.0767 59.6105 15.7826 59.4175 15.6364C59.194 15.4672 58.888 15.5582 58.757 15.7452C58.591 15.9823 58.6222 16.3304 58.6806 16.617C58.7389 16.9033 58.8571 17.2255 59.0582 17.4672C59.0421 17.512 59.0652 17.5722 59.131 17.5759C59.4581 17.594 59.7769 17.5589 60.0761 17.462C60.3542 17.372 60.733 17.22 60.8377 16.94Z" fill="#410B72"/>
<path d="M56.2596 27.7604C56.3828 27.6168 56.298 27.4052 56.1444 27.2601C55.9951 27.119 55.8189 27.0305 55.6416 26.9901C55.682 26.8336 55.7115 26.6232 55.6173 26.4679C55.5083 26.2882 55.2873 26.2547 55.1599 26.3379C54.9983 26.4434 54.9415 26.6823 54.9161 26.8889C54.8908 27.0953 54.8968 27.3436 54.9751 27.5643C54.9545 27.5889 54.9563 27.6356 54.9987 27.6581C55.2093 27.7699 55.4262 27.8441 55.644 27.8717C55.8464 27.8973 56.1287 27.9129 56.2596 27.7604Z" fill="#9B2C87"/>
<path d="M61.1509 26.3674C60.992 26.2628 60.7902 26.3707 60.6633 26.5386C60.54 26.7018 60.4727 26.8853 60.4537 27.0643C60.2919 27.0427 60.0774 27.0381 59.9332 27.1486C59.7663 27.2766 59.7595 27.4979 59.8584 27.6136C59.9838 27.7603 60.2301 27.7885 60.4404 27.7895C60.6503 27.7905 60.8985 27.756 61.1103 27.6534C61.1374 27.6708 61.184 27.6636 61.2014 27.6194C61.288 27.3993 61.336 27.1774 61.3372 26.9599C61.3383 26.7579 61.3196 26.4785 61.1509 26.3674Z" fill="#9B2C87"/>
<path d="M54.8269 16.8702C54.6922 16.6219 54.3858 16.625 54.1369 16.7592C53.895 16.8898 53.7098 17.0859 53.5861 17.3096C53.4011 17.169 53.1425 17.0145 52.9047 17.0609C52.6295 17.1148 52.4969 17.4028 52.5522 17.6242C52.6224 17.9051 52.9066 18.1129 53.1621 18.2597C53.4172 18.4063 53.7389 18.5324 54.0544 18.5432C54.0777 18.585 54.1385 18.6077 54.1846 18.5612C54.4138 18.33 54.597 18.0697 54.7207 17.7829C54.8356 17.5164 54.97 17.1339 54.8269 16.8702Z" fill="#9B2C87"/>
<path d="M64.6782 19.4499C64.4467 19.2873 64.1727 19.4253 64.0088 19.6553C63.8494 19.8788 63.7701 20.136 63.7584 20.3906C63.5297 20.3465 63.2285 20.3225 63.0356 20.469C62.8121 20.6387 62.821 20.9548 62.9692 21.1283C63.1572 21.3485 63.505 21.409 63.7999 21.4275C64.0943 21.4459 64.4395 21.4166 64.7279 21.2871C64.7674 21.3141 64.8321 21.3076 64.8529 21.2457C64.956 20.9378 65.005 20.6241 64.9886 20.313C64.9733 20.024 64.924 19.6225 64.6782 19.4499Z" fill="#9B2C87"/>
<path d="M68.2875 18.8483C68.0561 18.6858 67.7821 18.8238 67.6181 19.0537C67.4587 19.2773 67.3795 19.5344 67.3678 19.7891C67.1391 19.745 66.8379 19.7209 66.6449 19.8675C66.4215 20.0371 66.4304 20.3532 66.5786 20.5268C66.7666 20.747 67.1144 20.8074 67.4092 20.8259C67.7037 20.8444 68.0489 20.815 68.3373 20.6855C68.3768 20.7126 68.4415 20.706 68.4623 20.6442C68.5654 20.3362 68.6143 20.0225 68.5979 19.7115C68.5827 19.4224 68.5334 19.021 68.2875 18.8483Z" fill="#9B2C87"/>
<path d="M59.8696 12.2351C59.6381 12.0725 59.3641 12.2105 59.2002 12.4404C59.0408 12.664 58.9615 12.9211 58.9498 13.1758C58.7211 13.1317 58.42 13.1077 58.227 13.2542C58.0035 13.4238 58.0124 13.7399 58.1606 13.9135C58.3486 14.1337 58.6964 14.1941 58.9913 14.2126C59.2857 14.2311 59.6309 14.2018 59.9193 14.0722C59.9588 14.0993 60.0236 14.0928 60.0443 14.0309C60.1474 13.723 60.1964 13.4092 60.18 13.0982C60.1647 12.8091 60.1154 12.4077 59.8696 12.2351Z" fill="#9B2C87"/>
<path d="M66.2445 15.1391C66.3437 14.8756 66.1384 14.6494 65.8718 14.5522C65.6125 14.4578 65.3411 14.4486 65.0895 14.5034C65.0737 14.2733 65.0197 13.9791 64.827 13.8325C64.6039 13.6628 64.2977 13.7532 64.1663 13.9399C63.9998 14.1766 64.0303 14.5249 64.0881 14.8116C64.1458 15.0979 64.2633 15.4204 64.4639 15.6625C64.4477 15.7073 64.4707 15.7675 64.5365 15.7713C64.8636 15.7902 65.1824 15.7557 65.4818 15.6595C65.7601 15.57 66.1392 15.4188 66.2445 15.1391Z" fill="#9B2C87"/>
<path d="M63.2406 14.5395C63.3397 14.276 63.1345 14.0498 62.8679 13.9526C62.6086 13.8581 62.3372 13.849 62.0856 13.9038C62.0698 13.6737 62.0158 13.3795 61.8231 13.2329C61.6 13.0632 61.2938 13.1536 61.1624 13.3403C60.9959 13.577 61.0264 13.9252 61.0842 14.212C61.1419 14.4983 61.2594 14.8208 61.46 15.0629C61.4438 15.1077 61.4668 15.1679 61.5325 15.1717C61.8597 15.1906 62.1785 15.1561 62.4779 15.0598C62.7562 14.9704 63.1353 14.8192 63.2406 14.5395Z" fill="#9B2C87"/>
<path d="M72.8578 19.3481C72.9569 19.0846 72.7517 18.8584 72.485 18.7612C72.2258 18.6667 71.9544 18.6576 71.7028 18.7124C71.687 18.4823 71.633 18.1881 71.4403 18.0415C71.2172 17.8718 70.9109 17.9622 70.7796 18.1488C70.6131 18.3856 70.6436 18.7338 70.7014 19.0206C70.7591 19.3069 70.8766 19.6294 71.0772 19.8715C71.0609 19.9163 71.084 19.9765 71.1497 19.9803C71.4769 19.9992 71.7957 19.9647 72.0951 19.8684C72.3734 19.779 72.7525 19.6278 72.8578 19.3481Z" fill="#764095"/>
<path d="M71.0531 22.9535C71.1522 22.6901 70.947 22.4639 70.6804 22.3667C70.4211 22.2722 70.1497 22.2631 69.8981 22.3178C69.8823 22.0877 69.8283 21.7935 69.6356 21.647C69.4125 21.4773 69.1063 21.5676 68.9749 21.7543C68.8084 21.9911 68.8389 22.3393 68.8967 22.626C68.9544 22.9124 69.0719 23.2348 69.2725 23.477C69.2563 23.5218 69.2793 23.582 69.345 23.5858C69.6722 23.6046 69.991 23.5702 70.2904 23.4739C70.5687 23.3845 70.9478 23.2333 71.0531 22.9535Z" fill="#9B2C87"/>
<path d="M74.6586 23.5551C74.7577 23.2917 74.5525 23.0654 74.2858 22.9682C74.0266 22.8738 73.7552 22.8646 73.5036 22.9194C73.4878 22.6893 73.4338 22.3951 73.2411 22.2485C73.018 22.0788 72.7117 22.1692 72.5804 22.3559C72.4138 22.5926 72.4444 22.9409 72.5022 23.2276C72.5599 23.5139 72.6773 23.8364 72.878 24.0785C72.8617 24.1233 72.8848 24.1836 72.9505 24.1874C73.2776 24.2062 73.5965 24.1717 73.8959 24.0755C74.1741 23.986 74.5533 23.8349 74.6586 23.5551Z" fill="#764095"/>
<path d="M77.6664 23.5551C77.7655 23.2917 77.5603 23.0654 77.2936 22.9682C77.0344 22.8738 76.763 22.8646 76.5114 22.9194C76.4956 22.6893 76.4416 22.3951 76.2489 22.2485C76.0258 22.0788 75.7195 22.1692 75.5882 22.3559C75.4217 22.5926 75.4522 22.9409 75.51 23.2276C75.5677 23.5139 75.6852 23.8364 75.8858 24.0785C75.8695 24.1233 75.8926 24.1836 75.9583 24.1874C76.2854 24.2062 76.6043 24.1717 76.9037 24.0755C77.1819 23.986 77.5611 23.8349 77.6664 23.5551Z" fill="#410B72"/>
<path d="M78.213 27.0769C78.3963 26.8632 78.2808 26.5804 78.0634 26.3979C77.8521 26.2205 77.6002 26.1191 77.3451 26.0845C77.4089 25.8629 77.4587 25.5679 77.3278 25.3643C77.1762 25.1286 76.8575 25.1088 76.6702 25.2393C76.4327 25.4048 76.3423 25.7425 76.2986 26.0317C76.2549 26.3205 76.2551 26.6637 76.3608 26.9599C76.3302 26.9964 76.3313 27.0609 76.3917 27.0869C76.6927 27.2165 77.0041 27.2931 77.3184 27.3051C77.6104 27.3161 78.0184 27.3038 78.213 27.0769Z" fill="#9B2C87"/>
<path d="M81.2169 31.2839C81.4002 31.0702 81.2847 30.7874 81.0673 30.6049C80.856 30.4275 80.6041 30.3261 80.349 30.2915C80.4128 30.0699 80.4626 29.775 80.3317 29.5713C80.1801 29.3356 79.8614 29.3158 79.6741 29.4463C79.4367 29.6118 79.3462 29.9495 79.3025 30.2387C79.2588 30.5275 79.259 30.8707 79.3647 31.1669C79.3341 31.2034 79.3352 31.2679 79.3956 31.2939C79.6966 31.4235 80.008 31.5001 80.3223 31.5121C80.6143 31.5232 81.0223 31.5108 81.2169 31.2839Z" fill="#410B72"/>
<path d="M78.6807 38.3196C78.9154 38.4774 79.1866 38.3339 79.3458 38.1006C79.5006 37.8739 79.5746 37.6152 79.5811 37.3604C79.8107 37.3998 80.1123 37.4177 80.3023 37.2673C80.5222 37.0932 80.5069 36.7773 80.3552 36.6068C80.1628 36.3905 79.8138 36.3372 79.5186 36.3247C79.2238 36.3122 78.8792 36.3485 78.5936 36.4839C78.5535 36.4576 78.4889 36.4655 78.4694 36.5278C78.3726 36.8377 78.3301 37.1523 78.3528 37.463C78.3739 37.7517 78.4314 38.152 78.6807 38.3196Z" fill="#764095"/>
<path d="M68.5964 34.2128C68.4441 34.2646 68.3596 34.4271 68.4047 34.5815C68.4498 34.736 68.6085 34.8275 68.7648 34.7892C69.1691 34.69 69.8925 34.4451 70.6 34.2056C70.9448 34.0889 71.2857 33.9735 71.5841 33.8768C71.9476 33.7591 72.1898 33.6682 72.3905 33.5929C72.4512 33.5701 72.5081 33.5487 72.5635 33.5285C72.7973 33.4429 73.018 33.3712 73.4231 33.2799C73.6002 33.2399 73.6975 33.2521 73.7396 33.2669C73.749 33.2702 73.7545 33.2733 73.7574 33.2751L73.7603 33.2771L73.7611 33.2778L73.7612 33.278L73.7618 33.279C73.7624 33.2801 73.7639 33.2831 73.7654 33.289C73.8116 33.4671 73.739 33.6441 73.4886 33.8552C73.2385 34.0661 72.8871 34.2425 72.5593 34.4028L72.509 34.4274C71.8784 34.7358 71.2185 34.9803 70.5392 35.1573L69.5502 35.415C69.4038 35.4531 69.3086 35.594 69.3278 35.744C69.347 35.894 69.4747 36.0063 69.6259 36.0063H69.6292C69.9462 36.0063 70.917 36.0064 71.895 35.6896C72.5315 35.4834 72.9909 35.4172 73.2804 35.4308C73.413 35.437 73.4913 35.4592 73.5312 35.4778C73.5255 35.4902 73.5164 35.5069 73.5019 35.5282C73.4561 35.5952 73.3721 35.6836 73.2365 35.7855C72.9662 35.9886 72.5299 36.2168 71.9137 36.4234C70.3162 36.9593 69.0891 36.9537 67.956 36.9485L67.9343 36.9484C66.794 36.9433 65.715 36.9393 64.5144 37.5531C63.3363 38.1554 62.5642 38.9148 62.1728 40.0502C61.7892 41.163 61.7846 42.6017 62.043 44.5345C62.2284 45.9209 62.6024 47.1923 63.0073 48.2556C63.0907 48.4746 62.9288 48.6987 62.7169 48.6987L59.1149 48.6988C58.949 48.6988 58.8134 48.5642 58.8126 48.3966C58.8084 47.512 58.7946 46.588 58.7804 45.6297C58.7531 43.7968 58.724 41.8381 58.7558 39.7877C58.8696 32.4591 60.2806 30.0992 61.2844 29.0932C61.9712 28.4451 62.854 27.5391 63.4165 26.9539C63.4882 26.8793 63.584 26.8525 63.6642 26.8641C63.739 26.875 63.7946 26.9166 63.8204 26.9908C63.933 27.3152 63.9853 27.6542 63.9274 28.0125C63.8697 28.3698 63.6986 28.7682 63.3302 29.2064C62.7824 29.858 62.1417 30.7902 61.9385 31.5518C61.8387 31.926 61.819 32.359 62.1024 32.6708C62.3819 32.9785 62.8552 33.0544 63.4438 32.9829C64.7434 32.825 65.4492 32.4614 66.1169 31.8678C66.3847 31.6297 66.6476 31.3535 66.9361 31.0504C66.9935 30.9901 67.0519 30.9288 67.1116 30.8665C67.4748 30.487 67.8974 30.057 68.452 29.5709C69.0078 29.0838 69.4257 28.7996 69.7201 28.6622C69.8676 28.5934 69.9675 28.5694 70.0279 28.5656C70.0473 28.5644 70.0599 28.5654 70.0674 28.5665C70.0705 28.5747 70.0749 28.5897 70.0777 28.6147C70.0846 28.6747 70.0794 28.7671 70.05 28.8951C69.9914 29.1495 69.8502 29.4884 69.6243 29.8775C69.0492 30.8139 68.3073 31.6062 67.7044 32.167C67.4034 32.4469 67.1391 32.6673 66.9506 32.8172C66.8564 32.8922 66.7813 32.9494 66.7302 32.9876C66.7047 33.0067 66.6852 33.021 66.6723 33.0303L66.658 33.0406L66.6548 33.043L66.6542 33.0434L66.6541 33.0434L66.6541 33.0434C66.6541 33.0434 66.6541 33.0435 66.6541 33.0435C66.5365 33.1266 66.4945 33.2816 66.5539 33.4128C66.6133 33.544 66.7575 33.6146 66.8976 33.5811C67.9459 33.3302 69.8463 32.3923 71.567 31.2891C71.9746 31.0278 72.3354 30.8754 72.616 30.8106C72.9141 30.7418 73.0575 30.7851 73.0979 30.8136C73.1079 30.8207 73.1121 30.8257 73.1152 30.8421C73.1197 30.8661 73.1207 30.9223 73.085 31.0206C73.0122 31.2211 72.8148 31.5191 72.4209 31.9045C71.6372 32.6714 70.6824 33.2495 69.9158 33.6376C69.5339 33.8309 69.202 33.9755 68.9662 34.0714C68.8484 34.1193 68.7548 34.1551 68.6912 34.1786C68.6594 34.1904 68.6351 34.1991 68.6191 34.2048L68.6013 34.2111L68.5973 34.2125L68.5965 34.2127L68.5965 34.2127L68.5964 34.2128ZM70.0768 28.569C70.0768 28.5691 70.076 28.5688 70.0748 28.5682C70.0762 28.5686 70.0769 28.569 70.0768 28.569ZM70.0639 28.559C70.0635 28.5586 70.0634 28.5583 70.0634 28.5583L70.0639 28.559Z" stroke="#558E1D" stroke-width="0.601093" stroke-linejoin="round"/>
<path d="M47.6848 34.2128C47.8371 34.2646 47.9217 34.4271 47.8766 34.5815C47.8315 34.736 47.6727 34.8275 47.5165 34.7892C47.1122 34.69 46.3887 34.4451 45.6813 34.2056C45.3365 34.0889 44.9955 33.9735 44.6972 33.8768C44.3337 33.7591 44.0914 33.6682 43.8908 33.5929C43.83 33.5701 43.7731 33.5487 43.7178 33.5285C43.484 33.4429 43.2632 33.3712 42.8582 33.2799C42.6811 33.2399 42.5837 33.2521 42.5417 33.2669C42.5323 33.2702 42.5267 33.2733 42.5238 33.2751L42.521 33.2771L42.5202 33.2778L42.52 33.278L42.5194 33.279C42.5188 33.2801 42.5174 33.2831 42.5159 33.289C42.4696 33.4671 42.5422 33.6441 42.7926 33.8552C43.0427 34.0661 43.3941 34.2425 43.722 34.4028L43.7722 34.4274C44.4028 34.7358 45.0627 34.9803 45.7421 35.1573L46.7311 35.415C46.8774 35.4531 46.9726 35.594 46.9534 35.744C46.9342 35.894 46.8065 36.0063 46.6553 36.0063H46.652C46.335 36.0063 45.3642 36.0064 44.3863 35.6896C43.7497 35.4834 43.2903 35.4172 43.0008 35.4308C42.8683 35.437 42.79 35.4592 42.7501 35.4778C42.7557 35.4902 42.7648 35.5069 42.7794 35.5282C42.8252 35.5952 42.9092 35.6836 43.0448 35.7855C43.315 35.9886 43.7514 36.2168 44.3675 36.4234C45.9651 36.9593 47.1921 36.9537 48.3253 36.9485L48.3469 36.9484C49.4873 36.9433 50.5663 36.9393 51.7668 37.5531C52.945 38.1554 53.717 38.9148 54.1084 40.0502C54.4921 41.163 54.4967 42.6017 54.2382 44.5345C54.0529 45.9209 53.6788 47.1923 53.274 48.2556C53.1906 48.4746 53.3525 48.6987 53.5644 48.6987L57.1663 48.6988C57.3322 48.6988 57.4678 48.5642 57.4686 48.3966C57.4729 47.512 57.4866 46.588 57.5009 45.6297C57.5281 43.7968 57.5572 41.8381 57.5254 39.7877C57.4116 32.4591 56.0006 30.0992 54.9968 29.0932C54.31 28.4451 53.4273 27.5391 52.8647 26.9539C52.793 26.8793 52.6973 26.8525 52.6171 26.8641C52.5422 26.875 52.4866 26.9166 52.4608 26.9908C52.3483 27.3152 52.2959 27.6542 52.3538 28.0125C52.4116 28.3698 52.5826 28.7682 52.951 29.2064C53.4988 29.858 54.1396 30.7902 54.3427 31.5518C54.4425 31.926 54.4622 32.359 54.1789 32.6708C53.8993 32.9785 53.4261 33.0544 52.8375 32.9829C51.5378 32.825 50.8321 32.4614 50.1643 31.8678C49.8965 31.6297 49.6336 31.3535 49.3451 31.0504C49.2877 30.9901 49.2293 30.9288 49.1697 30.8665C48.8065 30.487 48.3839 30.057 47.8292 29.5709C47.2734 29.0838 46.8556 28.7996 46.5612 28.6622C46.4137 28.5934 46.3137 28.5694 46.2533 28.5656C46.2339 28.5644 46.2214 28.5654 46.2139 28.5665C46.2107 28.5747 46.2064 28.5897 46.2035 28.6147C46.1967 28.6747 46.2019 28.7671 46.2313 28.8951C46.2898 29.1495 46.431 29.4884 46.657 29.8775C47.232 30.8139 47.9739 31.6062 48.5769 32.167C48.8778 32.4469 49.1422 32.6673 49.3306 32.8172C49.4248 32.8922 49.4999 32.9494 49.551 32.9876C49.5765 33.0067 49.5961 33.021 49.609 33.0303L49.6232 33.0406L49.6265 33.043L49.6271 33.0434L49.6271 33.0434L49.6272 33.0434C49.6272 33.0434 49.6272 33.0435 49.6272 33.0435C49.7448 33.1266 49.7868 33.2816 49.7274 33.4128C49.668 33.544 49.5237 33.6146 49.3836 33.5811C48.3354 33.3302 46.4349 32.3923 44.7143 31.2891C44.3067 31.0278 43.9459 30.8754 43.6652 30.8106C43.3672 30.7418 43.2238 30.7851 43.1834 30.8136C43.1734 30.8207 43.1691 30.8257 43.1661 30.8421C43.1616 30.8661 43.1605 30.9223 43.1963 31.0206C43.2691 31.2211 43.4665 31.5191 43.8603 31.9045C44.6441 32.6714 45.5989 33.2495 46.3655 33.6376C46.7474 33.8309 47.0793 33.9755 47.315 34.0714C47.4328 34.1193 47.5264 34.1551 47.59 34.1786C47.6218 34.1904 47.6461 34.1991 47.6621 34.2048L47.6799 34.2111L47.684 34.2125L47.6848 34.2127L47.6848 34.2127L47.6848 34.2128ZM46.2044 28.569C46.2045 28.5691 46.2052 28.5688 46.2065 28.5682C46.205 28.5686 46.2044 28.569 46.2044 28.569ZM46.2173 28.559C46.2177 28.5586 46.2179 28.5583 46.2179 28.5583L46.2173 28.559Z" stroke="#558E1D" stroke-width="0.601093" stroke-linejoin="round"/>
<path d="M108.37 50.6C108.37 23.2067 86.1252 1 58.6849 1C31.2447 1 9 23.2067 9 50.6" stroke="#447713" stroke-width="0.299487"/>
</svg>
